<?xml version="1.0" standalone="no"?>
<!DOCTYPE svg PUBLIC "-//W3C//DTD SVG 20010904//EN"
 "http://www.w3.org/TR/2001/REC-SVG-20010904/DTD/svg10.dtd">
<svg version="1.0" xmlns="http://www.w3.org/2000/svg"
 width="852.000000pt" height="831.000000pt" viewBox="0 0 852.000000 831.000000"
 preserveAspectRatio="xMidYMid meet">

<g transform="translate(0.000000,831.000000) scale(0.100000,-0.100000)"
fill="#000000" stroke="none">
<path d="M3965 7969 c-44 -5 -125 -14 -180 -19 -95 -10 -129 -16 -262 -41
-369 -69 -778 -215 -1093 -390 -220 -122 -343 -202 -550 -362 -145 -111 -418
-371 -537 -512 -164 -194 -332 -433 -436 -620 -48 -87 -189 -379 -217 -450
-96 -244 -170 -495 -209 -715 -64 -356 -86 -704 -61 -975 25 -267 33 -329 66
-490 28 -137 33 -158 49 -217 8 -32 21 -82 29 -110 75 -278 227 -624 404 -918
306 -509 775 -979 1286 -1288 37 -23 69 -42 71 -42 2 0 32 -17 66 -38 253
-151 686 -316 1029 -391 170 -37 264 -50 562 -81 224 -23 636 -4 883 40 28 5
79 14 115 20 36 6 81 15 100 20 19 5 82 21 139 35 127 32 327 97 449 146 12 5
32 13 45 18 257 103 619 310 847 484 418 321 764 712 1011 1145 51 88 65 114
110 202 110 218 191 426 257 660 32 112 44 165 77 315 19 82 41 243 55 395 31
327 23 593 -31 955 -6 39 -14 88 -19 110 -5 22 -14 67 -21 100 -14 71 -41 176
-69 270 -5 17 -13 46 -18 65 -10 35 -56 168 -72 205 -4 11 -16 40 -25 65 -24
66 -39 98 -125 275 -264 541 -649 1006 -1145 1381 -84 64 -240 170 -297 202
-18 11 -71 42 -118 69 -101 58 -321 166 -417 204 -13 5 -33 13 -45 18 -152 61
-436 150 -558 174 -14 2 -61 12 -105 21 -155 31 -256 46 -470 66 -128 12 -454
11 -570 -1z m316 -229 c10 -6 19 -15 19 -21 0 -6 10 -19 22 -28 28 -23 19 -68
-17 -77 -30 -8 -31 -14 -4 -48 16 -20 29 -26 61 -26 42 0 78 21 78 47 0 7 -7
13 -15 13 -24 0 -20 61 4 67 11 3 21 15 23 27 2 16 11 22 36 24 40 4 65 -14
56 -40 -3 -10 0 -26 7 -34 17 -21 -4 -64 -31 -64 -22 0 -25 -12 -10 -41 14
-25 101 -27 121 -2 11 13 11 17 2 20 -17 6 -16 34 2 59 11 17 25 21 75 22 33
0 60 -3 60 -8 0 -5 -10 -21 -23 -37 -40 -49 -52 -75 -87 -180 -19 -57 -39
-103 -44 -103 -6 0 -27 5 -46 11 -166 50 -468 49 -644 -1 -21 -7 -42 -8 -45
-3 -4 4 -22 53 -40 108 -18 55 -48 121 -67 148 -19 26 -34 51 -34 56 0 5 27 9
61 8 49 0 63 -4 75 -21 17 -25 18 -53 2 -59 -10 -3 -10 -7 1 -20 18 -22 88
-22 113 0 23 21 23 43 0 43 -10 0 -23 5 -30 12 -15 15 -16 55 -1 63 6 4 8 13
5 21 -11 28 5 44 45 44 33 0 39 -3 39 -21 0 -13 8 -23 20 -26 31 -8 38 -53 11
-74 l-22 -18 23 -20 c47 -45 154 -8 136 47 -2 4 -7 6 -12 4 -15 -5 -36 20 -36
43 0 12 9 30 20 40 11 10 20 24 20 31 0 11 15 19 43 23 5 0 17 -4 28 -9z
m-1003 -252 c13 -26 21 -52 17 -58 -9 -15 -42 -12 -48 4 -3 8 -20 22 -37 31
-75 39 -183 -55 -122 -107 21 -18 97 -38 149 -38 56 -1 125 -38 146 -80 23
-45 18 -116 -12 -158 -43 -61 -206 -111 -256 -78 -23 15 -55 73 -55 100 0 23
46 20 63 -4 36 -51 118 -60 165 -17 24 23 29 72 9 98 -16 21 -71 39 -117 39
-20 0 -60 7 -88 15 -71 22 -102 62 -102 137 0 47 4 59 28 83 42 43 147 84 207
81 25 -1 34 -8 53 -48z m2178 -2 c81 -38 85 -46 60 -116 -18 -50 -47 -48 -58
5 -11 50 -40 81 -85 90 -49 9 -83 -15 -83 -58 1 -25 14 -46 66 -102 95 -102
110 -145 75 -214 -47 -92 -150 -108 -276 -44 -69 36 -80 54 -69 121 8 52 11
57 34 57 21 0 25 -5 28 -35 1 -19 7 -47 13 -61 10 -27 74 -69 103 -69 27 0 64
29 70 55 9 37 -8 68 -77 144 -89 96 -97 158 -32 227 30 32 37 34 94 34 50 0
77 -7 137 -34z m-2722 -162 c3 -9 -3 -27 -14 -41 -11 -14 -20 -33 -20 -41 0
-22 128 -272 153 -300 15 -17 30 -22 56 -20 26 2 36 -1 39 -13 2 -11 -26 -31
-99 -68 -56 -29 -108 -50 -115 -47 -20 8 -17 30 6 51 33 30 33 28 -74 229 -62
116 -73 128 -115 124 -30 -2 -36 0 -36 16 0 14 26 33 100 73 55 29 103 53 106
53 4 0 10 -7 13 -16z m3145 -30 c99 -50 104 -54 95 -78 -5 -12 -14 -15 -38
-11 -19 4 -38 1 -48 -7 -24 -19 -158 -282 -158 -310 0 -13 9 -30 20 -38 23
-17 26 -38 6 -46 -23 -9 -216 96 -216 118 0 15 8 18 44 18 24 0 48 6 54 13 5
6 42 76 82 155 64 126 71 146 62 168 -7 13 -16 24 -22 24 -5 0 -10 9 -10 20 0
31 27 25 129 -26z m-1385 -28 c30 -8 64 -19 75 -26 24 -12 51 -60 51 -89 0
-23 -19 -38 -29 -24 -25 39 -118 43 -214 8 -37 -13 -72 -27 -78 -31 -11 -7
-11 -15 10 -188 9 -66 9 -92 0 -102 -14 -17 -80 -19 -96 -3 -9 9 -20 7 -44 -7
-18 -11 -34 -24 -36 -29 -8 -25 157 -49 172 -25 11 17 117 11 187 -11 78 -25
128 -71 128 -117 0 -48 -10 -54 -66 -38 -70 19 -165 36 -201 36 -19 0 -43 10
-61 25 -17 14 -35 25 -42 25 -6 0 -26 -11 -44 -25 -18 -14 -46 -25 -62 -25
-16 0 -63 -7 -104 -15 -41 -9 -92 -18 -112 -22 -38 -6 -38 -6 -38 30 0 26 9
46 30 70 35 41 36 46 11 115 -31 85 -35 126 -16 187 15 45 16 62 6 99 -24 97
-6 158 52 171 12 3 40 9 62 14 68 15 397 13 459 -3z m-2158 -223 c19 -20 34
-42 34 -49 0 -20 -32 -25 -56 -9 -38 25 -88 19 -123 -14 -32 -30 -38 -58 -21
-92 9 -15 22 -19 70 -19 32 0 81 5 109 12 89 20 161 -17 190 -97 29 -82 -26
-169 -146 -226 -59 -28 -68 -30 -90 -18 -35 19 -77 75 -69 94 7 20 29 19 68
-5 39 -24 69 -25 107 -6 31 16 61 56 61 81 0 9 -7 27 -16 41 l-17 25 -143 -3
c-139 -3 -143 -2 -168 21 -52 49 -59 140 -13 192 30 35 145 109 170 109 10 0
35 -17 53 -37z m2261 25 c15 -24 33 -83 33 -108 0 -26 -21 -95 -33 -106 -4 -4
-7 -18 -7 -30 0 -32 -15 -37 -52 -20 -18 8 -55 21 -83 29 -51 14 -67 34 -89
104 -10 32 28 45 124 42 88 -3 100 11 50 57 -16 16 -30 32 -30 36 0 13 78 9
87 -4z m1785 -81 c65 -37 142 -100 170 -139 l19 -28 -41 -60 c-23 -34 -47 -59
-53 -57 -8 3 -11 25 -9 69 4 77 -8 102 -68 142 -32 21 -52 26 -100 26 -74 0
-124 -29 -170 -98 -71 -107 -61 -199 30 -279 38 -34 74 -30 106 12 24 32 26
38 14 60 -7 14 -17 25 -22 25 -14 0 -9 38 6 43 13 5 46 -13 74 -40 8 -7 30
-26 50 -41 53 -39 62 -49 62 -66 0 -12 -10 -16 -39 -16 -35 0 -45 -6 -83 -50
-24 -27 -48 -50 -55 -50 -29 0 -151 80 -205 134 -80 80 -101 195 -54 298 45
101 119 147 236 147 67 1 81 -3 132 -32z m-4492 -239 c0 -6 -5 -26 -12 -44
-14 -39 -13 -39 164 -223 72 -75 118 -130 116 -140 -3 -14 -32 -16 -276 -19
-149 -1 -272 -6 -271 -10 1 -11 208 -166 235 -175 18 -6 32 -4 50 8 24 15 28
15 41 2 14 -14 9 -23 -46 -91 -34 -42 -68 -76 -76 -76 -20 0 -29 20 -16 33 14
14 14 48 -2 68 -13 16 -189 159 -244 198 l-33 22 -29 -20 c-25 -18 -30 -19
-41 -6 -13 16 -11 22 45 93 l40 51 238 1 c130 0 237 3 236 8 0 4 -42 50 -94
102 l-94 95 -33 -13 c-48 -19 -51 -19 -56 1 -2 12 19 39 64 82 66 62 94 78 94
53z m4974 -209 c76 -81 94 -119 57 -119 -11 0 -23 5 -26 10 -13 21 -58 9 -99
-27 -191 -170 -206 -186 -206 -214 0 -15 5 -31 10 -34 16 -10 12 -32 -7 -39
-12 -5 -36 13 -87 70 -86 93 -91 101 -76 119 10 12 15 12 36 -1 14 -10 34 -14
48 -10 20 5 104 78 233 203 24 23 32 77 13 88 -12 7 5 35 20 35 4 0 42 -36 84
-81z m-2416 1 c139 -13 133 -6 172 -215 15 -78 23 -257 16 -318 -12 -93 -69
-127 -212 -127 -65 0 -84 3 -96 18 -19 21 -38 116 -39 196 -2 90 -11 120 -35
124 -20 3 -22 -4 -33 -120 -22 -222 -20 -218 -114 -218 -103 0 -176 30 -204
83 -15 27 -18 58 -17 197 0 152 5 197 35 316 l11 41 66 12 c125 21 300 26 450
11z m-1750 -89 c38 -47 40 -73 10 -103 -26 -26 -25 -64 2 -92 27 -27 47 -14
55 36 13 86 38 128 76 128 54 0 66 -75 18 -113 l-31 -24 -8 -138 c-6 -127 -9
-140 -30 -157 -24 -20 -24 -43 -1 -163 6 -27 15 -76 21 -107 5 -32 15 -84 20
-115 6 -32 15 -85 21 -118 5 -33 14 -85 19 -115 34 -201 34 -212 10 -232 -26
-21 -93 -24 -109 -4 -6 7 -16 49 -22 92 -6 43 -15 108 -20 144 -5 36 -14 101
-20 145 -6 44 -14 114 -20 155 -5 41 -12 116 -15 165 -7 94 -16 125 -38 125
-18 0 -40 28 -55 70 -7 19 -17 44 -21 55 -4 11 -18 46 -31 79 -18 47 -29 61
-55 72 -63 26 -80 83 -33 112 29 18 57 -2 110 -80 l42 -61 19 22 c29 36 24 78
-12 96 -34 17 -49 59 -31 86 6 10 11 25 11 33 0 23 29 46 59 46 20 0 36 -11
59 -39z m1095 -6 c4 -8 -5 -45 -18 -82 -31 -89 -43 -194 -50 -433 -7 -256 12
-846 41 -1237 l7 -93 -35 0 c-72 0 -147 51 -181 123 -15 32 -72 245 -97 362
-6 33 -16 71 -20 85 -4 14 -13 50 -20 80 -21 93 -50 139 -155 251 -130 137
-187 221 -234 344 -13 33 -27 69 -31 80 -17 44 -30 104 -30 141 0 45 18 69 75
105 46 30 239 126 305 152 25 10 54 22 65 27 62 26 190 69 285 98 51 15 87 14
93 -3z m1013 6 c16 -5 49 -14 74 -21 176 -50 306 -101 499 -198 181 -90 211
-114 211 -168 0 -21 -4 -51 -9 -68 -51 -168 -81 -249 -112 -296 -19 -30 -96
-116 -171 -191 -135 -137 -173 -188 -196 -266 -19 -67 -27 -100 -62 -258 -5
-25 -14 -65 -20 -90 -25 -112 -33 -142 -43 -165 -17 -39 -78 -100 -116 -116
-37 -15 -87 -19 -95 -6 -3 5 -1 82 5 173 34 554 46 1051 30 1279 -13 185 -21
233 -53 318 -16 42 -18 55 -8 67 14 17 26 18 66 6z m1185 -111 c25 -14 25 -59
-1 -139 -12 -34 -18 -67 -14 -73 4 -6 21 -8 48 -3 22 4 66 8 96 9 49 1 55 -1
70 -26 13 -25 13 -31 0 -55 -17 -31 -66 -42 -104 -25 -49 23 -78 32 -98 32
-19 0 -20 -4 -15 -57 4 -32 10 -74 13 -94 5 -29 2 -39 -20 -60 -31 -29 -33
-49 -5 -72 20 -17 21 -26 17 -169 -2 -126 -1 -152 12 -158 8 -4 32 -16 54 -26
90 -44 159 -149 172 -262 7 -67 10 -63 -71 -77 -23 -4 -52 -18 -68 -33 l-29
-27 -23 28 c-31 35 -76 45 -110 23 -25 -16 -28 -16 -70 4 -48 23 -72 18 -105
-22 -13 -16 -19 -17 -48 -6 -32 12 -35 12 -63 -20 -24 -27 -33 -31 -48 -22
-11 5 -28 10 -39 10 -24 0 -32 25 -32 107 0 129 75 246 195 303 34 16 72 30
84 30 12 0 24 6 26 13 3 6 9 75 13 151 8 134 9 140 35 162 32 28 33 38 6 67
-22 24 -22 30 7 139 9 38 15 71 11 74 -6 6 -121 -10 -148 -21 -9 -3 -27 3 -42
15 -33 26 -36 71 -6 101 23 23 33 22 123 -11 32 -11 64 -19 72 -16 9 4 11 27
7 101 -5 77 -3 99 8 106 19 12 66 11 90 -1z m1140 -127 c99 -138 102 -144 85
-161 -14 -14 -17 -14 -35 2 -29 27 -68 15 -154 -44 -201 -140 -195 -133 -173
-183 30 -74 81 -109 148 -105 36 3 43 0 43 -16 0 -14 -14 -23 -55 -37 -83 -27
-93 -25 -120 24 -13 23 -59 95 -103 160 -75 112 -88 147 -54 147 8 0 20 -7 27
-15 7 -8 20 -15 29 -15 18 0 238 145 279 183 19 18 23 29 18 58 -11 66 17 67
65 2z m-5774 -134 c53 -29 65 -43 57 -63 -6 -15 -14 -17 -49 -12 -33 5 -47 3
-67 -14 -28 -22 -81 -117 -72 -131 3 -5 33 -25 66 -45 l62 -36 18 24 c9 13 25
38 33 56 17 33 51 44 61 18 5 -12 -26 -79 -47 -100 -18 -19 -8 -32 47 -64 82
-47 96 -43 143 41 26 47 26 60 0 107 -22 40 -20 70 5 70 16 0 106 -78 106 -92
0 -5 -21 -44 -46 -86 -48 -78 -70 -117 -120 -210 -35 -64 -58 -66 -62 -5 -4
53 -5 54 -202 160 -104 56 -117 59 -144 34 -21 -20 -56 -21 -56 -1 0 10 78
158 102 192 10 14 18 29 18 32 0 12 92 146 100 146 5 0 26 -9 47 -21z m869
-76 c7 -22 37 -87 98 -213 48 -100 56 -130 31 -130 -9 0 -38 49 -75 125 -34
68 -66 127 -72 131 -18 12 -77 -67 -78 -103 0 -39 -9 -41 -37 -10 -37 41 -36
45 33 132 67 85 90 100 100 68z m4169 -101 c22 -15 75 -91 75 -106 0 -19 -4
-20 -29 -4 -15 9 -25 7 -52 -12 -19 -13 -36 -27 -39 -30 -3 -3 -26 -21 -52
-40 -42 -31 -47 -40 -48 -72 0 -55 -7 -51 -74 36 -25 33 -34 52 -27 59 7 7 15
6 25 -3 21 -17 36 -10 122 58 64 50 73 61 74 90 0 32 6 38 25 24z m-4363 -199
c10 -9 18 -22 18 -28 0 -9 17 -12 54 -11 49 1 57 -2 80 -29 44 -51 46 -148 4
-207 -22 -32 -45 -36 -64 -11 -14 20 -2 43 22 43 21 0 36 39 29 76 -6 33 -43
64 -76 64 -21 0 -49 -32 -49 -55 0 -27 -8 -35 -27 -28 -11 4 -13 16 -8 52 5
37 3 52 -12 70 -20 25 -52 20 -54 -8 -3 -59 -24 -87 -38 -50 -12 32 -3 77 21
112 23 32 70 37 100 10z m5418 -24 c0 -8 51 -123 71 -162 5 -10 7 -22 4 -27
-11 -17 -44 -11 -55 10 -19 35 -47 27 -287 -87 -83 -39 -88 -51 -52 -129 26
-53 56 -76 113 -84 56 -7 54 -30 -4 -47 -25 -8 -60 -12 -79 -11 -31 3 -36 8
-54 53 -11 28 -28 69 -38 92 -11 24 -19 45 -19 48 0 3 -16 39 -35 79 -19 41
-35 81 -35 90 0 23 30 20 56 -5 25 -23 28 -23 124 18 31 14 61 27 193 88 36
17 42 28 38 69 0 10 4 25 10 33 10 11 15 11 30 -3 11 -10 19 -21 19 -25z
m-855 -118 c85 -12 105 -19 105 -36 0 -22 -14 -25 -71 -15 -30 5 -83 14 -118
20 -35 6 -65 9 -68 6 -3 -3 4 -21 16 -40 l22 -35 34 16 c33 16 36 15 55 -2 26
-24 26 -26 -15 -53 -29 -18 -34 -27 -29 -46 8 -32 -9 -40 -31 -16 -23 25 -55
10 -55 -25 0 -42 -23 -28 -58 34 -33 61 -30 82 7 59 17 -11 23 -10 37 4 16 16
15 20 -15 66 -49 77 -45 86 42 79 39 -3 104 -10 142 -16z m-5570 -89 c0 -37
25 -61 84 -81 20 -7 47 -17 61 -23 14 -6 34 -14 45 -18 11 -4 31 -12 45 -17
14 -6 38 -16 53 -22 43 -17 64 -13 86 15 21 26 51 27 51 2 0 -11 -28 -88 -71
-196 -14 -36 -43 -24 -47 20 -4 43 -22 61 -82 81 -25 9 -83 30 -130 48 -122
45 -135 46 -163 13 -37 -42 -62 -11 -38 48 5 13 19 50 32 83 27 72 37 87 58
83 11 -2 16 -14 16 -36z m810 2 c9 -9 13 -24 10 -33 -47 -119 -39 -148 25 -83
32 34 47 42 75 42 83 0 125 -51 125 -149 0 -68 -6 -91 -26 -91 -10 0 -13 16
-12 65 1 60 -1 67 -28 90 -45 39 -68 32 -114 -35 -13 -19 -25 -37 -27 -39 -3
-5 -94 77 -105 94 -4 7 2 38 13 71 11 32 22 65 24 72 6 17 20 15 40 -4z m4946
-166 c7 -18 25 -61 41 -96 42 -93 42 -94 -49 -86 -43 3 -132 9 -198 12 -97 6
-120 10 -120 22 0 13 25 15 158 18 86 1 157 4 157 5 0 2 -11 27 -25 55 -17 34
-34 56 -51 62 -22 9 -24 13 -14 25 7 8 29 15 50 15 33 0 39 -4 51 -32z m869
-160 c12 -40 26 -86 31 -102 14 -45 11 -66 -9 -66 -9 0 -23 9 -30 20 -18 29
-34 25 -110 -23 -37 -24 -98 -63 -135 -87 -43 -27 -64 -47 -59 -52 10 -10 47
-16 226 -38 97 -12 116 -10 116 17 0 10 5 25 10 33 8 13 11 13 23 0 25 -27 49
-185 31 -203 -11 -11 -34 5 -34 23 0 10 -10 24 -22 32 -23 14 -40 18 -322 68
-33 5 -73 10 -91 10 -37 0 -72 29 -81 67 -8 31 -24 19 186 154 190 122 210
140 210 185 0 27 4 34 19 34 16 0 24 -15 41 -72z m-5935 36 c1 -24 27 -43 100
-72 80 -32 135 -41 135 -22 0 6 9 10 20 10 11 0 20 -2 20 -3 0 -2 -13 -35 -28
-72 -29 -72 -52 -95 -52 -52 0 30 -10 38 -85 66 -33 13 -68 27 -77 32 -24 12
-55 11 -78 -3 -10 -7 -22 -10 -25 -6 -6 5 15 67 38 116 10 21 32 26 32 6z
m1337 -81 c12 -10 18 -28 16 -43 -1 -16 6 -35 20 -50 24 -26 30 -88 10 -108
-9 -9 -8 -16 4 -29 26 -30 29 -57 10 -95 -13 -25 -16 -41 -10 -53 14 -24 -8
-71 -46 -100 -42 -31 -149 -65 -205 -64 -74 1 -114 20 -122 57 -3 17 -14 43
-23 56 -9 14 -16 42 -16 62 0 21 -9 48 -21 66 -16 22 -20 39 -16 68 3 23 -1
49 -9 65 -28 55 -10 140 31 151 12 3 39 -2 60 -10 76 -32 167 -15 223 41 18
18 67 11 94 -14z m-2174 -43 c5 -33 27 -57 60 -63 15 -3 63 -15 107 -27 99
-27 137 -36 198 -49 59 -13 67 -18 67 -39 0 -17 -196 -149 -402 -271 -21 -13
-38 -26 -38 -31 0 -11 38 -20 90 -20 25 0 71 -4 103 -10 79 -13 114 -4 133 32
9 18 21 28 32 26 19 -4 19 -15 7 -136 -7 -66 -10 -73 -28 -70 -14 2 -24 14
-29 34 -9 37 -13 39 -109 53 -164 23 -248 31 -263 25 -9 -4 -23 -19 -31 -35
-11 -20 -20 -26 -31 -22 -14 5 -15 17 -10 80 4 40 9 79 12 86 3 7 51 39 107
73 212 126 277 169 277 181 0 7 -12 15 -27 19 -16 3 -61 15 -100 25 -103 27
-141 25 -153 -6 -11 -28 -36 -43 -50 -29 -5 5 -1 39 9 79 10 39 22 83 25 98 8
35 39 33 44 -3z m5380 -32 c8 -8 12 -30 10 -67 -3 -47 -7 -57 -29 -70 -49 -28
-129 21 -129 79 0 28 32 65 65 73 25 6 66 -1 83 -15z m-384 -23 c21 -14 27
-14 58 1 33 15 37 15 61 -1 14 -9 40 -41 57 -71 18 -33 45 -64 65 -76 42 -24
47 -63 14 -109 -17 -25 -27 -29 -67 -29 -29 0 -63 -8 -89 -22 -41 -22 -41 -22
-82 -3 -40 17 -44 18 -77 1 -35 -16 -37 -16 -79 7 -28 16 -53 23 -69 20 -48
-10 -96 59 -96 136 0 44 14 61 52 61 20 0 31 8 43 30 16 30 25 34 78 30 19 -1
34 5 44 19 17 25 54 27 87 6z m1009 -36 c28 -12 67 -76 67 -107 0 -89 -106
-157 -203 -131 -50 13 -85 30 -112 56 -31 27 -65 79 -65 97 0 26 27 18 45 -12
51 -85 190 -109 265 -46 34 29 38 49 13 76 -35 39 -107 5 -105 -51 1 -39 -29
-43 -46 -6 -19 41 -14 61 22 99 36 39 73 46 119 25z m-5233 -196 c3 -3 1 -7
-5 -9 -5 -2 -25 -13 -42 -24 -28 -17 -33 -25 -33 -59 0 -35 3 -39 31 -45 58
-11 65 -8 78 34 15 52 29 51 33 -2 3 -41 4 -43 38 -46 48 -3 61 8 67 57 5 34
2 46 -17 66 -27 29 -19 47 18 39 51 -13 64 -42 43 -96 -5 -13 -15 -56 -22 -95
-13 -75 -28 -92 -49 -53 -8 14 -21 20 -45 20 -33 0 -35 -2 -36 -35 -1 -19 -2
-40 -3 -47 -2 -20 62 -52 78 -39 19 16 26 3 26 -51 0 -52 -20 -66 -40 -28 -17
32 -214 160 -245 160 -17 0 -19 32 -6 93 5 23 15 69 22 102 7 33 18 63 23 68
11 8 77 0 86 -10z m1426 -248 c8 -45 -2 -109 -22 -140 -19 -28 -93 -65 -133
-65 -45 0 -97 27 -124 62 -24 34 -53 116 -43 125 3 3 25 -2 49 -11 83 -31 176
-16 226 38 32 34 39 33 47 -9z m4254 -72 c0 -21 36 -31 148 -43 193 -19 248
-11 254 39 2 18 10 27 25 29 19 3 22 -3 28 -50 4 -29 5 -73 3 -98 -3 -40 -6
-45 -33 -51 -16 -3 -83 -31 -149 -62 -65 -32 -122 -57 -126 -57 -4 0 -13 -7
-20 -15 -11 -13 8 -24 126 -80 77 -36 147 -70 156 -75 10 -6 25 -10 34 -10 15
0 16 -10 10 -84 -3 -46 -9 -92 -12 -101 -10 -25 -39 -13 -42 17 -5 43 -42 52
-205 45 -177 -8 -190 -11 -204 -48 -11 -29 -40 -39 -48 -16 -3 6 1 57 8 111
13 103 28 128 48 83 6 -14 21 -28 33 -31 29 -8 192 -6 246 3 l45 7 -145 71
c-80 38 -162 78 -182 88 -48 22 -50 48 -5 66 31 12 107 46 214 95 28 13 64 29
78 34 46 18 18 27 -100 33 -138 6 -173 -2 -182 -44 -4 -20 -12 -29 -24 -29
-16 0 -19 8 -20 43 0 23 -4 65 -8 92 -5 30 -5 57 1 68 9 18 11 18 29 1 10 -9
19 -23 19 -31z m-313 -100 c6 -70 8 -133 6 -141 -4 -9 -20 -12 -52 -10 -48 3
-57 15 -25 33 31 17 43 38 44 77 0 44 -18 57 -70 49 -32 -5 -35 -9 -36 -39 0
-36 -20 -66 -27 -41 -17 59 -25 74 -40 77 -28 6 -74 -17 -80 -39 -3 -10 -10
-19 -15 -19 -13 0 -19 20 -28 93 -5 48 -4 57 9 57 9 0 20 -7 25 -17 8 -14 22
-15 93 -10 117 8 146 16 152 38 3 10 11 19 19 19 11 0 17 -29 25 -127z m-2679
7 c24 -15 32 -27 32 -49 0 -17 -6 -33 -12 -38 -8 -5 4 -10 31 -13 63 -7 88
-42 71 -96 -23 -73 -70 -101 -122 -73 -28 15 -33 5 -19 -40 27 -93 92 -132
214 -132 65 -1 84 3 122 25 42 25 85 69 85 87 0 5 -17 9 -37 9 -20 0 -45 7
-55 17 -24 22 -23 79 3 122 18 29 24 33 52 28 18 -3 41 -9 52 -13 16 -6 18 -5
9 7 -7 8 -15 28 -19 46 -5 27 -2 37 20 59 25 25 31 26 87 21 109 -10 149 -68
89 -128 -36 -35 -38 -43 -12 -34 26 8 68 -10 75 -33 9 -26 -18 -86 -50 -111
-28 -22 -69 -28 -79 -11 -13 22 -25 8 -25 -29 0 -135 247 -165 368 -45 19 19
15 23 -25 26 -35 3 -38 6 -41 36 -11 111 144 211 164 106 l6 -35 16 23 c24 35
43 46 87 53 47 8 98 -9 93 -29 -2 -8 -30 -43 -63 -78 -105 -110 -152 -182
-247 -377 l-60 -124 -57 8 c-309 40 -475 50 -841 50 -328 0 -491 -8 -710 -35
-41 -5 -100 -12 -130 -16 l-55 -6 -19 45 c-70 171 -172 339 -268 442 -43 46
-78 90 -78 98 0 18 59 31 103 22 35 -8 77 -41 77 -62 0 -7 5 -13 10 -13 6 0
10 11 10 24 0 65 73 71 126 12 64 -73 62 -146 -3 -146 -44 0 -41 -13 10 -48
54 -37 99 -52 155 -52 102 0 169 45 179 119 5 39 -7 56 -22 31 -3 -5 -19 -10
-35 -10 -44 0 -90 58 -90 114 0 40 2 44 30 49 16 4 37 4 45 1 23 -9 18 1 -15
34 -36 36 -38 62 -7 97 18 21 34 27 87 31 57 5 68 3 93 -16 31 -24 34 -48 12
-90 l-15 -30 25 10 c61 23 98 -1 110 -69 10 -60 -12 -91 -65 -91 -50 0 -51
-15 -7 -57 53 -51 93 -66 177 -66 103 0 157 28 198 100 22 41 10 111 -13 73
-12 -20 -62 -10 -89 16 -21 21 -26 36 -26 74 0 59 23 84 74 78 l34 -4 -15 29
c-29 56 15 94 112 96 34 1 61 -6 83 -19z m-2770 0 c21 0 13 -20 -12 -31 -26
-12 -38 -48 -24 -73 7 -13 28 -16 113 -16 94 0 106 2 117 20 25 40 38 23 38
-48 0 -38 -3 -72 -7 -75 -3 -4 -17 5 -29 19 -23 24 -27 25 -131 22 l-108 -3 2
-35 c1 -22 9 -41 23 -52 29 -23 18 -37 -22 -29 -31 6 -33 10 -39 56 -9 69 2
238 15 248 6 4 20 5 31 2 11 -2 26 -5 33 -5z m-673 -70 c11 -17 -5 -50 -25
-50 -24 0 -68 -24 -85 -46 -17 -22 -21 -159 -5 -169 6 -4 44 -3 85 0 l75 7 0
63 c0 45 4 66 16 76 25 20 44 -14 44 -78 0 -59 -3 -56 80 -54 60 2 90 24 90
66 0 29 27 40 39 17 5 -9 10 -69 12 -132 4 -101 2 -115 -13 -118 -11 -2 -23 8
-32 26 -8 16 -23 32 -32 36 -9 3 -89 1 -178 -5 -167 -12 -196 -21 -196 -61 0
-11 -7 -18 -19 -18 -26 0 -30 25 -37 236 -6 147 -4 183 7 189 34 21 163 32
174 15z m6127 -280 c-4 -74 -15 -93 -36 -65 -13 18 -18 18 -67 7 -111 -26
-139 -35 -139 -41 0 -4 39 -27 87 -50 76 -38 89 -41 110 -30 12 7 26 10 29 6
8 -8 -16 -117 -26 -117 -5 0 -15 12 -22 27 -9 19 -45 44 -122 84 -125 65 -146
81 -146 109 0 25 15 31 145 61 114 26 155 43 155 65 0 9 7 14 18 12 14 -3 16
-13 14 -68z m-5218 28 c7 -29 8 -103 0 -110 -3 -3 -18 -1 -34 5 -43 16 -62 -4
-58 -62 2 -37 8 -48 30 -60 24 -14 28 -14 45 2 27 23 43 5 43 -50 0 -48 -4
-51 -34 -25 -12 10 -41 24 -66 31 -25 8 -56 17 -70 21 -14 4 -45 13 -70 20
-136 36 -130 57 35 140 87 44 133 72 140 88 5 12 15 22 21 22 7 0 14 -10 18
-22z m-560 -300 c3 -13 7 -43 11 -68 3 -25 9 -64 12 -87 5 -38 3 -43 -13 -43
-11 0 -25 9 -32 20 -16 27 -32 25 -70 -7 l-32 -28 15 -70 c21 -98 18 -95 73
-95 47 0 50 1 56 31 8 43 35 34 51 -16 33 -108 37 -124 31 -134 -12 -18 -33
-12 -50 14 -21 31 -55 40 -286 75 -153 23 -195 33 -217 53 -32 29 -28 49 15
73 20 11 75 45 122 74 47 29 99 60 115 70 112 64 145 91 145 119 0 32 7 41 31
41 11 0 20 -9 23 -22z m600 -60 c30 -112 27 -148 -8 -112 -16 16 -22 16 -89
-6 -40 -13 -76 -27 -80 -31 -18 -14 23 -25 181 -46 69 -9 62 -21 -65 -125 -29
-24 -52 -46 -53 -50 0 -12 33 -9 96 7 57 15 74 27 74 53 0 30 25 2 42 -47 21
-58 17 -72 -12 -53 -32 20 -97 14 -210 -17 -14 -3 -31 -19 -38 -34 -7 -15 -16
-27 -21 -27 -7 0 -41 86 -41 106 0 6 19 25 43 42 81 60 133 111 117 115 -38
11 -140 27 -173 27 -41 0 -51 12 -61 78 -7 45 0 51 34 30 15 -10 32 -8 87 11
101 33 135 51 140 72 6 21 32 26 37 7z m4845 -51 c7 -17 22 -27 53 -34 155
-38 184 -41 190 -21 2 6 11 9 19 6 13 -5 14 -13 5 -52 l-11 -47 -127 -62 c-71
-34 -128 -64 -128 -67 0 -9 124 -50 148 -50 12 0 24 5 27 10 9 15 25 12 25 -5
0 -8 -6 -33 -12 -55 -13 -42 -36 -60 -43 -35 -3 8 -7 21 -9 28 -2 6 -32 22
-67 35 -35 13 -73 27 -84 32 -11 5 -37 14 -58 21 -22 8 -37 19 -35 27 2 8 65
46 141 84 87 45 135 74 129 80 -5 5 -44 17 -86 25 -72 15 -78 14 -97 -3 -25
-23 -46 -7 -30 24 6 11 11 31 11 45 0 42 25 51 39 14z m-2089 -148 c226 -12
474 -38 514 -55 18 -7 18 -15 12 -128 -4 -67 -11 -236 -17 -376 -19 -517 -28
-737 -34 -810 -32 -398 -165 -621 -423 -708 -112 -39 -181 -47 -387 -47 -205
0 -248 6 -370 47 -266 90 -413 300 -454 648 -6 52 -15 208 -21 345 -6 138 -15
351 -20 475 -5 124 -12 298 -15 387 -5 186 -14 170 105 184 41 5 116 14 165
20 215 26 649 34 945 18z m3107 -84 c5 -14 1 -38 -29 -150 -17 -65 -27 -85
-42 -85 -9 0 -19 14 -24 33 l-8 32 -170 -4 c-93 -2 -171 -5 -174 -8 -3 -3 2
-10 11 -17 9 -6 36 -27 59 -46 92 -75 196 -150 207 -150 7 0 18 9 25 20 14 23
36 26 43 8 3 -7 -7 -44 -21 -83 -14 -38 -28 -78 -31 -87 -3 -10 -14 -18 -24
-18 -15 0 -19 7 -19 38 0 42 -18 62 -140 162 -30 25 -61 51 -68 58 -8 7 -30
25 -50 40 -88 65 -102 83 -102 128 0 52 5 54 124 54 51 0 151 5 222 10 l129
10 29 35 c32 39 44 43 53 20z m-5716 -205 c11 -36 9 -44 -24 -114 -20 -42 -40
-76 -46 -76 -5 0 -22 7 -38 17 -61 35 -118 -32 -79 -92 l16 -24 77 41 c104 55
134 77 131 96 -6 35 27 15 54 -32 34 -57 32 -82 -6 -65 -21 10 -33 8 -74 -14
-122 -64 -137 -75 -140 -101 -4 -32 -22 -34 -41 -3 -75 118 -95 204 -58 241
19 19 76 25 114 12 19 -7 25 -1 47 48 14 31 26 67 26 80 0 51 24 43 41 -14z
m4539 -45 c0 -22 12 -31 86 -67 85 -41 123 -49 157 -34 28 13 21 -16 -28 -111
-59 -115 -101 -153 -167 -153 -53 0 -79 10 -116 44 -28 25 -52 78 -52 113 0
23 71 191 93 221 15 20 27 14 27 -13z m-5140 -8 c0 -7 51 -141 65 -171 14 -30
15 -39 5 -51 -12 -14 -16 -13 -41 11 -23 22 -33 25 -61 19 -46 -10 -118 -45
-118 -57 0 -6 15 -42 33 -82 19 -39 40 -86 48 -104 17 -39 33 -38 110 10 46
28 50 33 47 64 -3 37 11 58 33 49 18 -8 111 -193 104 -206 -9 -14 -31 -11 -45
6 -22 26 -59 17 -179 -46 -159 -85 -184 -104 -179 -140 3 -18 -1 -34 -10 -41
-18 -15 -28 -3 -87 113 -39 76 -43 89 -29 99 12 11 19 9 37 -9 13 -11 31 -21
40 -21 19 0 114 47 122 60 4 7 -43 120 -87 208 -14 26 -31 25 -104 -10 -41
-19 -44 -23 -44 -59 0 -31 -4 -39 -19 -39 -10 0 -23 6 -28 13 -15 19 -73 170
-73 189 0 30 21 31 50 3 32 -31 29 -31 210 41 147 59 154 64 158 112 3 34 7
42 23 42 10 0 19 -1 19 -3z m5680 -255 c0 -24 7 -45 18 -55 9 -9 71 -41 137
-71 66 -31 128 -61 137 -66 28 -16 56 -12 68 10 13 24 50 27 50 4 0 -22 -54
-137 -71 -150 -8 -6 -32 -14 -54 -17 -39 -6 -103 -20 -175 -37 -67 -17 -135
-32 -169 -39 -19 -3 -36 -11 -38 -17 -5 -16 194 -144 223 -144 13 0 28 9 34
20 13 24 38 26 46 5 9 -22 -95 -177 -115 -173 -12 3 -15 13 -13 45 l4 42 -181
120 c-166 112 -203 146 -168 155 6 2 55 13 107 25 52 12 111 26 130 31 19 5
55 13 80 19 25 6 78 18 118 27 46 11 72 22 72 30 0 8 -4 14 -9 14 -9 0 -169
71 -203 90 -31 17 -79 12 -100 -12 -16 -19 -20 -20 -33 -7 -13 13 -10 25 27
102 30 62 47 87 60 87 14 0 18 -8 18 -38z m-4870 -82 c18 -13 45 -43 61 -68
52 -82 35 -166 -45 -227 -29 -22 -46 -27 -94 -28 -92 -1 -156 54 -184 158 -11
40 -10 49 9 89 22 44 71 89 108 99 42 12 113 0 145 -23z m4110 -59 c0 -17 21
-66 51 -118 86 -148 89 -153 89 -172 0 -32 -24 -31 -141 10 -109 37 -166 48
-199 38 -24 -7 -17 21 15 62 33 42 65 51 65 19 0 -11 3 -20 8 -20 4 0 16 -3
28 -6 16 -4 29 4 54 35 31 40 31 42 16 66 -10 16 -26 25 -41 25 -31 0 -31 4
-3 43 38 55 58 61 58 18z m-3806 -311 c55 -58 59 -75 15 -66 -28 5 -37 -1
-106 -68 -63 -62 -74 -78 -71 -101 1 -16 -2 -30 -8 -32 -13 -4 -184 173 -184
190 0 16 51 67 67 67 15 0 18 -36 3 -45 -21 -13 -9 -52 25 -85 l35 -34 37 36
36 36 -27 28 c-29 32 -31 40 -15 50 6 3 24 -7 41 -22 l29 -29 30 32 c23 26 27
39 23 63 -10 45 15 38 70 -20z m3490 -67 c1 -24 17 -47 73 -107 39 -42 76 -76
82 -76 18 0 41 44 41 77 0 18 4 33 9 33 14 0 41 -41 41 -61 0 -17 -187 -199
-204 -199 -15 0 -56 42 -56 57 0 10 9 12 33 8 24 -5 39 -1 57 13 l24 20 -53
61 c-72 84 -106 110 -131 104 -13 -3 -20 0 -20 8 0 17 81 100 94 96 6 -2 10
-17 10 -34z m-3291 -115 c34 -29 73 -60 86 -69 29 -19 23 -50 -7 -42 -30 7
-153 -150 -150 -191 2 -16 -1 -31 -7 -32 -16 -6 -190 140 -193 162 -3 23 34
67 49 58 6 -3 7 -19 4 -35 -6 -26 -1 -35 30 -64 20 -19 40 -35 45 -35 4 0 20
16 35 36 l27 36 -26 27 c-44 46 -28 70 21 32 30 -25 45 -19 69 24 18 34 18 34
-6 61 -21 22 -31 25 -67 21 -61 -7 -74 6 -38 37 17 14 38 26 48 26 10 0 46
-24 80 -52z m-860 20 c71 -21 167 -134 167 -196 0 -16 -13 -43 -31 -65 -49
-59 -98 -43 -65 22 27 50 21 102 -15 139 -35 36 -71 41 -108 16 -20 -15 -22
-22 -18 -73 2 -31 11 -85 19 -120 19 -80 10 -118 -38 -160 -29 -26 -43 -31
-88 -31 -46 0 -58 5 -94 36 -44 37 -95 104 -106 139 -4 15 3 31 29 58 37 40
42 42 65 27 12 -7 12 -12 1 -34 -44 -81 35 -187 105 -141 23 15 25 21 21 68
-2 29 -12 82 -20 120 -12 52 -13 74 -5 100 14 41 45 75 83 92 39 17 49 18 98
3z m4847 -7 c0 -11 -4 -23 -10 -26 -33 -20 5 -66 160 -191 103 -83 114 -89
145 -68 25 16 55 13 55 -5 0 -5 -21 -35 -47 -68 -113 -139 -139 -152 -127 -64
l6 48 -58 49 c-33 27 -61 52 -64 55 -3 3 -34 29 -69 57 -63 51 -111 66 -126
42 -10 -16 -45 -12 -45 6 0 24 139 184 161 184 12 0 19 -7 19 -19z m-899 -62
c-11 -38 5 -163 35 -273 17 -60 17 -66 3 -66 -5 0 -36 -17 -67 -38 -31 -21
-77 -49 -101 -63 l-43 -24 -24 30 c-13 17 -24 36 -24 43 0 14 26 16 35 2 11
-18 59 -11 89 13 l29 24 -27 36 c-32 42 -37 43 -77 20 -23 -14 -31 -15 -41 -4
-11 10 -10 14 2 21 8 5 24 15 34 23 19 14 19 15 -5 45 -13 17 -33 31 -44 31
-26 1 -74 -39 -78 -64 -3 -24 -15 -45 -26 -45 -10 0 -31 46 -31 68 1 11 38 39
103 77 56 33 106 62 111 64 5 2 6 -12 2 -31 -5 -27 -2 -41 12 -58 l19 -23 37
22 c32 20 36 27 36 62 0 33 -4 41 -25 49 -30 11 -25 28 18 57 34 23 55 24 48
2z m-2890 -102 c27 -22 49 -100 49 -169 0 -25 -3 -28 -33 -28 -64 0 -94 -74
-47 -112 41 -33 49 -25 127 124 22 41 24 53 14 74 -6 14 -11 27 -11 29 0 12
35 3 80 -21 51 -26 66 -54 31 -54 -25 0 -50 -32 -95 -124 -30 -61 -35 -79 -27
-95 25 -46 -30 -32 -136 35 -29 18 -59 47 -68 64 -14 27 -14 33 0 59 17 34 51
61 77 61 9 0 19 3 21 8 7 10 -14 125 -24 137 -13 13 -11 35 4 35 6 0 24 -10
38 -23z m-616 -261 c57 -54 67 -67 55 -76 -8 -5 -21 -8 -28 -5 -60 22 -64 20
-152 -85 -30 -35 -70 -80 -87 -100 -49 -53 -59 -84 -38 -116 15 -23 15 -28 3
-40 -12 -13 -25 -6 -89 48 -87 73 -111 98 -106 112 2 6 15 10 28 9 79 -8 62
-20 211 148 87 99 96 118 72 154 -13 20 -14 28 -4 40 15 18 30 8 135 -89z
m4039 3 c285 -166 310 -179 345 -179 17 0 40 6 51 13 17 10 22 9 30 -3 15 -23
10 -29 -79 -108 -95 -85 -118 -89 -96 -16 6 21 -17 41 -108 93 -18 10 -65 38
-105 61 -40 23 -75 40 -78 37 -7 -6 84 -276 102 -305 13 -19 21 -22 49 -16 29
5 35 3 35 -11 0 -19 -7 -26 -81 -82 -31 -24 -63 -43 -72 -43 -27 0 -30 20 -8
44 23 25 26 45 11 90 -6 17 -37 112 -69 211 l-60 180 21 37 c12 21 26 38 31
38 6 0 42 -19 81 -41z m-3648 -286 c106 -65 118 -88 46 -88 -24 0 -46 -5 -50
-11 -112 -172 -182 -287 -182 -299 0 -16 73 -55 101 -55 13 0 35 9 49 20 31
24 46 25 54 3 5 -12 -7 -31 -39 -62 l-45 -46 -68 35 c-118 60 -332 201 -332
217 0 4 14 31 32 60 21 35 39 53 51 53 18 0 19 -5 13 -46 -3 -25 -1 -54 4 -64
9 -16 69 -60 82 -60 6 0 88 125 147 224 44 74 50 106 26 126 -20 16 -19 50 1
50 8 0 58 -26 110 -57z m3264 28 c0 -10 -7 -24 -15 -31 -30 -25 -18 -58 74
-208 28 -46 51 -87 51 -91 0 -4 11 -18 24 -30 17 -16 33 -22 57 -19 50 5 49
-23 -1 -56 -38 -25 -57 -36 -157 -93 -80 -45 -157 -83 -168 -83 -5 0 -25 23
-43 51 -26 40 -31 53 -21 65 16 19 33 18 54 -6 11 -12 31 -20 52 -20 38 0 132
45 141 68 5 15 -42 115 -64 132 -6 6 -33 -3 -68 -21 -53 -28 -60 -29 -74 -15
-20 20 -8 35 52 65 25 12 48 26 51 31 6 10 -28 76 -60 116 l-23 28 -52 -24
c-67 -31 -90 -61 -90 -115 0 -44 -22 -77 -40 -59 -12 13 -48 127 -43 139 2 6
45 32 97 59 51 27 124 68 162 91 77 48 104 55 104 26z m-2923 -207 c28 -13 64
-29 78 -34 36 -14 29 -43 -10 -50 -28 -5 -30 -9 -33 -52 -3 -44 -1 -47 30 -61
39 -17 116 -47 123 -47 7 0 65 65 65 73 0 5 -10 17 -22 27 -21 17 -21 20 -8
34 13 14 23 12 95 -12 64 -22 80 -32 80 -47 0 -16 -8 -21 -36 -23 -40 -3 -37
-1 -258 -240 -94 -103 -107 -113 -135 -110 l-31 3 0 247 c0 246 0 246 -24 272
-14 15 -21 31 -17 41 7 19 22 16 103 -21z m2400 -61 c2 -6 -8 -23 -23 -37
l-28 -25 22 -68 c13 -37 27 -77 31 -88 5 -11 24 -58 43 -105 33 -84 34 -85 72
-90 97 -12 34 -49 -220 -130 -17 -6 -54 -10 -82 -10 -45 0 -55 4 -85 34 -53
53 -56 146 -7 191 11 10 20 21 20 25 0 9 -102 81 -150 106 -19 10 -53 20 -75
23 -24 4 -40 11 -40 19 0 17 66 41 115 43 29 2 57 -12 147 -72 62 -41 113 -81
113 -89 0 -9 -13 -23 -29 -33 -55 -33 -46 -134 17 -170 29 -17 37 -18 82 -6
27 7 51 18 54 24 2 6 -9 49 -26 96 -16 46 -36 107 -46 134 -9 28 -25 68 -37
90 -17 34 -25 40 -53 41 -36 0 -55 13 -44 30 4 6 36 22 72 34 36 13 79 29 95
36 34 15 57 14 62 -3z m-1708 -152 c77 -14 81 -16 81 -42 0 -14 -7 -19 -29
-19 -43 0 -50 -15 -81 -175 -6 -33 -16 -78 -20 -100 -23 -106 -18 -115 61
-115 35 0 47 6 75 35 18 19 37 35 43 35 18 0 13 -47 -10 -95 -18 -37 -26 -45
-48 -45 -35 0 -211 31 -286 50 -16 4 -56 13 -87 20 -32 7 -58 18 -59 24 -3 27
3 74 13 104 13 42 41 40 46 -2 6 -47 28 -71 77 -84 54 -14 65 -10 65 25 0 14
4 42 9 62 6 20 19 85 31 144 20 100 20 111 5 133 -8 13 -22 24 -30 24 -9 0
-15 9 -15 21 0 19 4 20 48 16 26 -2 76 -10 111 -16z m1067 -28 c15 -5 31 -44
40 -95 6 -35 4 -38 -17 -38 -16 0 -31 12 -46 35 -33 50 -76 70 -123 56 -48
-14 -64 -34 -64 -78 0 -40 25 -64 89 -84 120 -38 167 -73 179 -132 15 -73 -25
-137 -101 -164 -21 -7 -73 -13 -116 -13 -75 0 -78 1 -88 28 -36 93 -11 133 45
69 17 -20 43 -39 58 -43 40 -9 93 12 107 43 21 45 -10 75 -119 113 -113 40
-150 78 -150 154 0 112 91 173 239 159 30 -3 60 -7 67 -10z m-492 -34 c14 -12
-1 -39 -22 -39 -10 0 -26 -8 -36 -19 -14 -16 -16 -41 -14 -192 l3 -174 28 -13
c16 -8 27 -21 27 -33 0 -17 -8 -19 -97 -19 -54 0 -108 3 -120 6 -29 8 -31 44
-4 44 11 0 29 12 40 26 19 25 21 40 21 196 l0 169 -30 10 c-22 8 -30 17 -30
35 l0 24 113 -7 c61 -3 116 -9 121 -14z"/>
<path d="M4006 7139 c-36 -28 -33 -47 9 -55 31 -5 50 -24 26 -24 -12 0 -71
-59 -71 -71 0 -5 30 -9 68 -9 37 0 84 -4 104 -9 46 -11 56 -1 67 68 9 59 3 68
-72 100 -61 26 -97 26 -131 0z"/>
<path d="M4120 6451 c0 -5 9 -19 19 -32 18 -22 27 -24 111 -24 84 0 93 2 111
24 10 13 19 27 19 32 0 5 -58 9 -130 9 -71 0 -130 -4 -130 -9z"/>
<path d="M3456 6253 c-3 -3 -6 -37 -6 -73 0 -76 16 -104 47 -79 25 21 73 100
73 121 0 26 -11 22 -42 -14 -23 -28 -29 -31 -38 -18 -5 8 -10 25 -10 37 0 23
-13 37 -24 26z"/>
<path d="M3177 5994 c-20 -20 7 -173 34 -190 23 -14 74 72 81 135 4 45 -19 53
-35 12 -13 -36 -36 -48 -43 -23 -13 43 -30 73 -37 66z"/>
<path d="M3457 5763 c-24 -23 7 -195 36 -201 26 -5 97 110 97 158 0 40 -16 38
-42 -5 -28 -49 -52 -43 -56 13 -3 39 -17 53 -35 35z"/>
<path d="M5047 6253 c-4 -3 -7 -19 -7 -34 0 -32 -19 -49 -31 -28 -23 40 -38
54 -49 43 -13 -13 9 -69 46 -113 48 -57 64 -39 64 70 0 64 -6 80 -23 62z"/>
<path d="M5357 5963 c-4 -3 -7 -19 -7 -35 0 -39 -33 -38 -50 2 -16 38 -40 40
-39 3 0 -35 29 -106 53 -135 l19 -21 17 23 c18 24 40 104 40 146 0 23 -18 32
-33 17z"/>
<path d="M5056 5678 c-3 -13 -7 -34 -8 -47 -5 -38 -23 -35 -52 9 -30 46 -46
51 -46 15 0 -49 70 -165 99 -165 26 0 43 62 39 139 -3 65 -22 95 -32 49z"/>
<path d="M2837 4774 c-19 -26 -17 -54 4 -54 7 0 20 -7 30 -16 16 -14 19 -13
43 13 31 33 30 57 -2 61 -12 2 -22 8 -22 13 0 19 -36 8 -53 -17z"/>
<path d="M1560 4566 c0 -8 88 -66 100 -66 7 0 10 13 8 33 -3 31 -4 32 -55 35
-29 2 -53 1 -53 -2z"/>
<path d="M1626 3882 c-38 -23 -38 -35 0 -42 17 -4 36 -10 42 -14 16 -10 23 8
16 43 -7 35 -16 37 -58 13z"/>
<path d="M1030 3480 c-14 -11 -28 -20 -33 -20 -10 0 -77 -44 -77 -50 0 -7 121
-30 155 -30 24 0 25 2 19 43 -7 45 -20 77 -32 77 -4 0 -18 -9 -32 -20z"/>
<path d="M3970 3365 c0 -8 -9 -15 -20 -15 -11 0 -20 5 -20 10 0 6 -4 10 -10
10 -5 0 -10 -16 -10 -35 0 -31 -3 -35 -36 -41 -41 -7 -51 -23 -34 -54 9 -17
17 -20 44 -14 40 7 72 -8 81 -36 10 -30 -12 -50 -55 -50 -49 0 -58 11 -18 24
52 18 47 36 -9 36 -42 0 -54 5 -78 30 -36 38 -53 39 -29 3 23 -36 35 -48 57
-56 19 -7 22 -22 7 -32 -16 -10 -12 -45 6 -45 13 0 15 -6 8 -27 -9 -31 -11
-90 -4 -113 4 -11 -12 -16 -75 -23 -111 -11 -171 -5 -198 22 -29 27 -67 28
-67 2 0 -10 7 -21 15 -25 22 -8 18 -26 -5 -26 -27 0 -26 -26 1 -33 20 -5 20
-7 5 -22 -9 -9 -14 -21 -11 -26 8 -13 49 -11 62 2 14 14 44 4 41 -13 -6 -27
30 -18 43 10 15 35 42 42 155 42 39 0 99 3 133 6 50 6 61 10 61 25 0 26 14 31
98 33 71 1 81 4 125 36 111 80 130 90 174 90 52 0 71 -23 80 -101 5 -39 13
-59 32 -77 23 -22 32 -24 86 -18 33 3 83 10 110 16 91 19 145 23 145 12 0 -16
-34 -32 -64 -32 -14 0 -26 -4 -26 -10 0 -5 7 -10 15 -10 9 0 20 -11 25 -25 11
-28 20 -31 39 -12 10 10 14 8 22 -6 12 -21 27 -14 40 19 7 21 12 23 28 14 11
-5 22 -10 25 -10 12 0 5 33 -13 58 -10 15 -24 44 -30 65 -12 34 -16 37 -50 37
-21 0 -63 -5 -94 -11 -51 -11 -60 -10 -77 6 -28 25 -27 65 1 65 12 0 38 9 59
21 129 73 68 239 -88 239 -66 0 -114 -22 -176 -79 -61 -58 -104 -81 -149 -81
-68 0 -118 45 -86 77 22 22 -27 82 -68 83 -19 0 -23 -6 -23 -28 0 -54 57 -132
96 -132 8 0 14 -4 14 -10 0 -11 -28 -19 -84 -22 l-39 -3 -21 66 c-22 66 -59
129 -77 129 -5 0 -9 16 -9 35 0 19 -4 35 -10 35 -5 0 -10 -4 -10 -10 0 -5 -9
-10 -20 -10 -11 0 -20 7 -20 15 0 8 -4 15 -10 15 -5 0 -10 -7 -10 -15z m15
-85 c8 -13 -20 -24 -41 -16 -20 8 -9 26 16 26 10 0 22 -5 25 -10z m748 -58
c27 -24 23 -86 -9 -111 -39 -31 -62 -34 -102 -15 -20 9 -58 19 -84 22 -27 2
-48 8 -48 13 0 5 4 9 9 9 5 0 33 22 63 49 29 27 62 51 73 54 29 7 77 -3 98
-21z"/>
<path d="M3678 3338 c-14 -21 -16 -21 -32 -5 -26 26 -39 21 -33 -11 5 -27 4
-28 -24 -24 -39 6 -40 -24 -1 -39 l27 -11 -24 -19 c-25 -20 -22 -23 37 -33 40
-7 71 -41 113 -124 41 -80 56 -93 64 -55 4 15 10 35 15 45 7 12 0 28 -24 60
-70 92 -87 127 -85 174 3 55 -12 74 -33 42z"/>
<path d="M4305 3320 c-17 -19 -17 -20 15 -50 36 -34 74 -39 120 -15 36 19 48
52 26 73 -15 15 -19 15 -51 -2 -31 -17 -35 -17 -50 -2 -22 21 -38 20 -60 -4z"/>
<path d="M3490 3125 c-17 -20 -5 -47 31 -67 42 -25 76 -22 116 8 39 30 42 50
8 66 -20 9 -28 8 -43 -5 -23 -21 -36 -21 -52 -2 -16 19 -44 19 -60 0z"/>
<path d="M4868 3129 c-27 -15 -22 -35 15 -63 45 -34 84 -33 127 3 29 25 33 32
24 48 -14 24 -47 28 -64 8 -16 -19 -34 -19 -50 0 -14 17 -28 18 -52 4z"/>
<path d="M4355 3008 c-34 -20 -44 -41 -45 -96 l0 -54 -57 5 c-32 3 -75 9 -95
12 -39 7 -53 -7 -20 -20 16 -6 16 -7 0 -16 -25 -14 -24 -43 2 -36 17 4 19 1
14 -19 -5 -20 -2 -24 15 -24 12 0 21 4 21 9 0 17 34 22 46 7 16 -22 31 -20 50
8 12 19 26 26 57 28 42 3 42 3 47 48 4 37 10 47 33 58 21 10 27 20 27 46 0 17
-5 37 -12 44 -15 15 -57 15 -83 0z"/>
<path d="M3910 2732 c0 -37 -3 -42 -23 -42 -13 0 -32 -6 -43 -14 -32 -24 -7
-50 51 -54 67 -4 95 -41 58 -77 -13 -14 -27 -16 -65 -11 -39 5 -50 4 -54 -9
-4 -9 1 -21 11 -29 15 -11 16 -17 4 -54 -9 -33 -10 -48 0 -68 6 -15 10 -28 9
-29 -7 -6 -137 -25 -169 -25 -22 0 -53 12 -83 30 -39 25 -50 28 -68 19 -22
-12 -22 -12 5 -31 34 -25 34 -38 2 -38 -30 0 -32 -14 -4 -33 19 -14 19 -16 4
-24 -15 -9 -15 -11 0 -23 15 -12 21 -12 48 4 30 17 31 17 48 -5 18 -25 36 -19
49 16 8 21 15 22 147 27 76 3 145 9 153 12 9 4 20 16 25 29 9 19 16 22 62 19
69 -5 115 11 187 65 136 101 197 97 217 -13 16 -84 25 -103 56 -115 35 -13
133 -4 236 23 43 11 80 18 83 16 11 -11 -10 -38 -30 -38 -21 -1 -56 -21 -56
-34 0 -3 11 -6 25 -6 18 0 25 -5 25 -20 0 -23 12 -25 40 -7 17 10 22 9 30 -3
9 -13 11 -13 20 0 5 8 10 23 10 33 0 15 5 17 30 12 41 -9 39 11 -4 59 -19 20
-36 47 -38 59 -2 18 -9 22 -38 21 -19 -1 -53 -7 -75 -14 -78 -23 -95 -24 -110
-4 -29 38 -12 84 30 84 11 0 37 14 58 31 35 29 37 34 37 89 0 51 -4 62 -29 88
-43 43 -109 59 -175 42 -41 -10 -65 -26 -124 -81 l-72 -69 -59 0 c-77 0 -112
24 -93 64 15 34 3 60 -38 81 -42 22 -50 19 -50 -16 0 -43 34 -99 77 -128 44
-29 32 -41 -44 -41 -40 0 -53 4 -53 15 0 30 -43 128 -71 160 -19 22 -29 44
-29 65 0 33 0 33 -21 14 -20 -18 -21 -18 -35 1 -14 19 -14 19 -28 0 -14 -19
-15 -19 -35 -1 -21 19 -21 19 -21 -22z m80 -61 c0 -13 -27 -21 -45 -15 -25 10
-17 24 15 24 17 0 30 -4 30 -9z m720 -50 c34 -27 35 -95 1 -122 -25 -21 -71
-25 -87 -9 -6 6 -34 13 -63 17 -28 3 -54 9 -56 14 -3 4 19 33 50 63 47 48 60
56 92 56 22 0 49 -9 63 -19z"/>
<path d="M3680 2735 c0 -17 -25 -20 -35 -5 -3 6 -13 10 -22 10 -12 0 -14 -7
-9 -32 5 -25 4 -30 -6 -20 -14 14 -58 16 -58 3 0 -5 14 -19 30 -31 36 -26 38
-36 8 -44 -19 -5 -21 -8 -8 -16 8 -5 28 -10 43 -10 35 0 71 -36 111 -111 48
-90 76 -113 76 -61 0 15 5 33 11 39 7 7 -6 33 -46 88 -59 83 -70 110 -62 152
3 15 3 33 0 40 -7 18 -33 16 -33 -2z"/>
<path d="M4302 2707 c-16 -19 9 -52 54 -73 33 -16 37 -16 71 2 42 22 59 45 50
68 -7 18 -67 23 -67 6 0 -5 -9 -10 -19 -10 -11 0 -23 5 -26 10 -9 14 -51 12
-63 -3z"/>
<path d="M3760 2651 c0 -5 18 -27 41 -50 36 -38 44 -42 82 -39 29 2 42 8 42
18 0 11 -13 16 -50 17 -41 2 -55 8 -78 33 -29 31 -37 36 -37 21z"/>
<path d="M3491 2516 c-18 -21 1 -50 45 -71 34 -16 39 -16 73 0 46 20 67 50 50
71 -15 18 -53 18 -69 -1 -12 -14 -15 -14 -36 0 -29 19 -48 19 -63 1z"/>
<path d="M4857 2523 c-4 -3 -7 -17 -7 -30 0 -19 10 -28 44 -44 46 -20 63 -18
109 13 30 21 36 52 11 62 -25 10 -42 7 -59 -10 -15 -15 -17 -15 -34 0 -18 16
-52 21 -64 9z"/>
<path d="M4363 2405 c-40 -17 -53 -42 -53 -100 0 -56 -13 -63 -84 -46 -91 21
-106 23 -106 14 0 -5 6 -15 13 -22 10 -10 9 -15 -5 -25 -25 -18 -22 -26 8 -26
21 0 24 -4 19 -20 -8 -26 20 -27 48 -3 18 17 19 17 32 0 16 -23 46 -22 52 2 4
16 15 21 52 23 l46 3 3 47 c3 41 7 48 33 60 23 10 29 19 29 45 0 32 -22 63
-43 63 -7 -1 -26 -7 -44 -15z"/>
<path d="M3950 2122 c0 -38 -2 -42 -24 -42 -54 0 -71 -25 -42 -63 12 -16 17
-16 34 -6 44 27 104 -37 72 -76 -15 -18 -61 -20 -78 -3 -9 10 -16 8 -30 -6
-16 -16 -16 -18 6 -36 20 -16 21 -22 12 -40 -7 -12 -10 -45 -8 -73 l3 -52 -79
-3 c-68 -2 -84 0 -108 18 -15 11 -36 20 -48 20 -23 0 -27 -28 -5 -36 21 -8 19
-21 -5 -27 -11 -3 -20 -10 -20 -17 0 -7 9 -14 20 -17 24 -6 26 -19 3 -27 -15
-6 -15 -8 0 -23 15 -16 19 -16 53 0 35 17 36 17 41 -3 7 -28 20 -25 37 8 14
27 20 29 92 35 42 4 95 7 116 7 34 0 40 4 49 30 11 29 13 30 77 30 72 0 81 4
174 76 57 45 89 57 126 47 29 -7 52 -60 52 -120 0 -44 13 -81 34 -95 33 -23
119 -5 215 44 60 32 71 34 71 14 0 -8 -16 -23 -36 -35 -36 -22 -39 -43 -4 -34
16 4 20 0 20 -17 0 -17 4 -20 18 -14 9 4 27 7 40 7 18 -1 22 5 22 29 0 27 2
30 25 24 20 -5 25 -3 25 14 0 11 -11 27 -24 36 -14 8 -34 31 -45 50 -11 19
-27 34 -34 34 -8 0 -44 -14 -81 -30 -37 -17 -71 -28 -76 -25 -6 4 -10 24 -10
46 0 37 3 40 47 62 131 62 121 211 -14 233 -61 9 -113 -10 -183 -71 -66 -57
-105 -72 -166 -62 -50 8 -67 29 -52 61 14 33 -5 74 -38 82 -35 9 -42 -1 -34
-45 9 -53 32 -86 70 -102 16 -8 30 -17 30 -20 0 -8 -111 -20 -121 -13 -4 2
-10 23 -14 46 -10 55 -29 99 -60 137 -18 21 -24 37 -20 51 7 22 -20 30 -28 8
-3 -9 -9 -8 -19 5 -13 17 -15 17 -27 3 -13 -15 -15 -15 -32 0 -18 16 -19 15
-19 -24z m70 -49 c-1 -19 -19 -35 -34 -30 -26 10 -19 37 9 37 14 0 25 -3 25
-7z m669 -79 c26 -33 26 -54 1 -87 -26 -33 -64 -42 -102 -22 -17 8 -51 15 -75
15 -23 0 -43 2 -43 5 0 7 61 61 104 93 42 31 89 29 115 -4z"/>
<path d="M3712 2113 c-9 -13 -14 -15 -18 -5 -6 12 -44 18 -44 6 0 -3 5 -14 10
-24 10 -18 8 -19 -20 -14 -39 8 -40 -12 -2 -43 25 -21 26 -24 9 -34 -25 -15
-12 -29 28 -29 26 0 40 -8 63 -36 16 -19 35 -47 43 -62 24 -47 54 -92 62 -92
4 0 7 9 7 20 0 10 5 30 12 44 9 22 8 29 -9 43 -11 10 -38 46 -61 80 -36 52
-42 70 -42 112 0 54 -14 66 -38 34z"/>
<path d="M4302 2097 c-16 -19 8 -50 53 -71 34 -17 38 -17 72 1 43 22 59 44 50
67 -8 19 -39 21 -67 4 -16 -10 -24 -10 -40 0 -26 16 -55 15 -68 -1z"/>
<path d="M3810 2033 c0 -3 11 -21 26 -40 22 -30 30 -33 75 -33 36 0 49 4 46
13 -2 7 -17 11 -39 9 -27 -3 -41 3 -67 27 -34 32 -41 36 -41 24z"/>
<path d="M3534 1885 c-10 -24 1 -39 46 -63 l42 -22 42 23 c30 16 42 29 44 50
3 23 0 27 -23 27 -14 0 -36 -5 -47 -11 -14 -8 -23 -8 -31 0 -16 16 -67 13 -73
-4z"/>
<path d="M4817 1893 c-18 -18 -4 -44 38 -68 l45 -27 42 24 c32 17 44 30 46 51
3 23 0 27 -23 27 -14 0 -36 -5 -47 -11 -14 -8 -23 -8 -31 0 -12 12 -60 15 -70
4z"/>
<path d="M4333 1778 c-29 -33 -47 -103 -33 -129 21 -38 6 -49 -68 -49 -75 0
-103 -14 -74 -37 12 -11 14 -16 5 -19 -24 -10 -13 -26 13 -21 21 4 25 1 21
-14 -8 -30 11 -32 39 -4 20 20 29 23 40 14 19 -15 48 -3 40 17 -4 11 5 20 35
32 l41 16 -6 47 c-6 46 8 79 35 79 5 0 9 20 9 45 l0 45 -38 0 c-27 0 -44 -7
-59 -22z"/>
<path d="M6486 3035 c-25 -25 -30 -79 -12 -117 18 -37 79 -78 115 -78 48 0
121 62 121 103 0 14 -172 107 -197 107 -7 0 -18 -7 -27 -15z"/>
<path d="M2101 2763 c-13 -2 -43 -24 -67 -49 -37 -36 -44 -50 -44 -82 0 -60
30 -92 86 -92 85 0 157 64 157 141 0 65 -54 98 -132 82z"/>
<path d="M6306 2571 c-10 -11 -16 -25 -14 -31 4 -12 79 -43 86 -36 6 6 -38 86
-47 86 -4 0 -16 -9 -25 -19z"/>
<path d="M5729 1991 l-24 -19 31 -38 c37 -47 60 -57 50 -23 -4 13 -10 41 -13
62 -6 42 -12 44 -44 18z"/>
<path d="M3050 1092 c0 -21 -3 -60 -6 -86 -9 -60 5 -60 59 0 71 79 71 80 37
97 -16 9 -43 18 -60 22 -29 6 -30 6 -30 -33z"/>
</g>
</svg>
