<?xml version="1.0" standalone="no"?>
<!DOCTYPE svg PUBLIC "-//W3C//DTD SVG 20010904//EN"
 "http://www.w3.org/TR/2001/REC-SVG-20010904/DTD/svg10.dtd">
<svg version="1.0" xmlns="http://www.w3.org/2000/svg"
 width="896.000000pt" height="882.000000pt" viewBox="0 0 896.000000 882.000000"
 preserveAspectRatio="xMidYMid meet">

<g transform="translate(0.000000,882.000000) scale(0.100000,-0.100000)"
fill="#000000" stroke="none">
<path d="M4022 8650 c-72 -4 -146 -13 -164 -19 -17 -6 -54 -11 -83 -11 -28 0
-74 -7 -101 -15 -27 -8 -66 -15 -87 -15 -21 0 -48 -5 -59 -11 -11 -6 -44 -15
-72 -20 -54 -9 -151 -32 -176 -41 -14 -6 -45 -14 -143 -39 -21 -5 -45 -13 -55
-18 -24 -12 -83 -32 -112 -38 -14 -3 -34 -12 -45 -19 -11 -8 -29 -14 -40 -14
-11 0 -29 -7 -39 -15 -11 -8 -30 -15 -43 -15 -13 0 -23 -4 -23 -10 0 -5 -5
-10 -11 -10 -6 0 -27 -7 -47 -16 -86 -37 -295 -137 -302 -144 -5 -5 -71 -41
-150 -82 -25 -13 -47 -26 -50 -29 -3 -3 -34 -23 -70 -44 -36 -21 -66 -43 -68
-47 -2 -4 -8 -8 -13 -8 -11 0 -72 -42 -77 -52 -2 -5 -10 -8 -17 -8 -7 0 -15
-3 -17 -7 -2 -5 -19 -19 -39 -33 -20 -14 -51 -36 -68 -50 -60 -47 -146 -115
-157 -125 -6 -6 -39 -33 -73 -60 -73 -60 -377 -366 -447 -450 -27 -33 -51 -62
-54 -65 -3 -3 -28 -34 -55 -70 -27 -36 -54 -70 -60 -76 -5 -6 -17 -22 -25 -34
-8 -13 -33 -48 -56 -79 -54 -75 -131 -193 -154 -236 -6 -11 -19 -33 -30 -50
-62 -98 -230 -436 -230 -465 0 -5 -4 -10 -10 -10 -5 0 -10 -7 -10 -16 0 -16
-19 -65 -46 -117 -8 -16 -14 -36 -14 -46 0 -9 -7 -26 -15 -37 -8 -10 -15 -29
-15 -41 0 -12 -6 -34 -14 -50 -8 -15 -22 -55 -31 -88 -9 -33 -20 -69 -25 -80
-5 -11 -12 -39 -15 -62 -4 -24 -11 -45 -16 -49 -5 -3 -9 -19 -9 -35 0 -16 -7
-46 -15 -66 -8 -19 -15 -51 -15 -70 0 -18 -7 -50 -15 -70 -8 -19 -15 -55 -15
-79 0 -23 -5 -55 -11 -71 -6 -15 -15 -68 -20 -118 -5 -49 -13 -130 -18 -180
-12 -117 -12 -643 0 -760 5 -49 13 -130 18 -180 5 -49 14 -103 20 -118 6 -16
11 -48 11 -71 0 -24 7 -60 15 -79 8 -20 15 -52 15 -70 0 -19 7 -51 15 -70 8
-20 15 -50 15 -66 0 -16 4 -32 9 -36 6 -3 13 -27 17 -53 3 -26 10 -51 14 -57
5 -5 11 -27 15 -48 4 -20 11 -40 16 -43 5 -3 9 -17 9 -32 0 -15 6 -36 14 -47
7 -11 16 -31 19 -45 6 -28 23 -79 43 -125 7 -16 20 -48 29 -70 25 -62 31 -75
65 -150 67 -149 172 -348 238 -450 6 -11 15 -27 19 -35 4 -8 9 -17 13 -20 3
-3 17 -23 30 -45 13 -22 28 -44 32 -50 37 -47 98 -137 98 -144 0 -5 4 -11 8
-13 5 -2 33 -35 63 -74 30 -39 81 -104 114 -145 75 -93 385 -408 466 -474 34
-27 67 -54 73 -60 6 -6 40 -33 76 -60 36 -27 67 -52 70 -56 5 -6 31 -24 185
-130 28 -19 52 -37 55 -40 3 -3 12 -9 20 -12 8 -4 29 -16 45 -27 17 -11 39
-24 50 -30 11 -6 34 -19 50 -29 36 -23 90 -54 165 -93 30 -16 62 -33 70 -38
18 -11 205 -98 240 -112 14 -6 41 -17 60 -25 102 -44 153 -62 190 -70 14 -3
30 -9 35 -13 6 -4 44 -17 85 -29 41 -12 83 -26 92 -32 10 -5 28 -9 40 -9 13 0
36 -7 52 -15 15 -8 42 -15 60 -15 17 0 44 -7 60 -15 15 -8 43 -15 61 -15 18 0
49 -7 68 -15 20 -8 55 -15 77 -15 23 0 50 -4 60 -10 10 -5 60 -14 111 -20 52
-5 128 -15 169 -21 100 -15 800 -15 900 0 41 6 117 16 169 21 51 6 101 15 111
20 10 6 37 10 60 10 22 0 57 7 77 15 19 8 50 15 68 15 18 0 46 7 61 15 16 8
43 15 60 15 18 0 45 7 60 15 16 8 39 15 52 15 12 0 30 4 40 9 9 6 51 20 92 32
41 12 80 25 85 29 6 4 21 10 35 13 37 8 88 26 190 70 19 8 46 19 60 25 35 14
222 101 240 112 8 5 40 22 70 38 75 39 129 70 165 93 17 10 39 23 50 29 11 6
34 19 50 30 17 11 37 23 45 27 8 3 17 9 20 12 3 3 28 21 55 40 154 106 180
124 185 130 3 4 34 29 70 56 36 27 70 54 76 60 6 6 39 33 73 60 81 66 391 381
466 474 33 41 84 106 114 145 30 39 58 73 63 74 4 2 8 8 8 13 0 7 61 97 98
144 4 6 19 28 32 50 13 22 26 42 29 45 8 7 30 41 38 60 4 8 17 32 30 53 49 78
147 266 201 387 35 77 53 119 96 225 21 49 38 98 43 125 3 14 12 34 19 45 8
11 14 32 14 47 0 15 4 29 9 32 5 3 12 23 16 43 4 21 10 43 15 48 4 6 11 31 14
57 4 26 11 50 17 53 5 4 9 20 9 36 0 16 7 46 15 66 8 19 15 51 15 70 0 18 7
50 15 70 8 19 15 55 15 79 0 23 5 55 11 71 6 15 15 69 20 118 5 50 13 131 18
180 12 117 12 643 0 760 -5 50 -13 131 -18 180 -5 50 -14 103 -20 118 -6 16
-11 48 -11 71 0 24 -7 60 -15 79 -8 20 -15 52 -15 70 0 19 -7 51 -15 70 -8 20
-15 50 -15 66 0 16 -4 32 -9 35 -5 4 -12 25 -16 49 -3 23 -10 51 -15 62 -5 11
-16 47 -25 80 -9 33 -23 73 -31 88 -8 16 -14 38 -14 50 0 12 -7 31 -15 41 -8
11 -15 28 -15 37 0 10 -6 30 -14 46 -27 52 -46 101 -46 117 0 9 -4 16 -10 16
-5 0 -10 5 -10 10 0 29 -168 367 -230 465 -11 17 -24 39 -30 50 -23 43 -100
161 -154 236 -23 31 -48 66 -56 79 -8 12 -20 28 -25 34 -6 6 -33 40 -60 76
-27 36 -52 67 -55 70 -3 3 -27 32 -54 65 -70 84 -374 390 -447 450 -34 27 -67
54 -73 60 -11 10 -97 78 -157 125 -17 14 -48 36 -68 50 -20 14 -37 28 -39 33
-2 4 -10 7 -17 7 -7 0 -15 3 -17 8 -5 10 -66 52 -77 52 -5 0 -11 4 -13 8 -1 4
-32 26 -68 47 -36 21 -67 41 -70 44 -5 6 -65 39 -150 83 -25 13 -47 25 -50 28
-5 5 -89 46 -202 99 -96 45 -135 61 -147 61 -6 0 -11 5 -11 10 0 6 -10 10 -23
10 -13 0 -32 7 -43 15 -10 8 -28 15 -39 15 -11 0 -29 6 -40 14 -11 7 -31 16
-45 19 -29 6 -88 26 -112 38 -10 5 -34 13 -55 18 -98 25 -129 33 -143 39 -25
9 -122 32 -176 41 -28 5 -61 14 -72 20 -11 6 -39 11 -61 11 -22 0 -52 5 -68
11 -15 6 -66 15 -113 20 -47 5 -110 13 -140 18 -75 14 -684 21 -848 11z m613
-170 c22 -6 92 -13 155 -16 63 -3 130 -10 148 -16 18 -5 65 -13 105 -18 100
-11 199 -29 219 -41 10 -5 29 -9 42 -9 13 0 48 -7 77 -16 30 -8 79 -22 109
-30 30 -8 69 -20 85 -26 17 -5 44 -13 60 -18 40 -11 96 -31 117 -41 10 -5 23
-9 29 -9 6 0 27 -7 47 -16 21 -8 53 -22 72 -31 19 -8 48 -21 63 -29 16 -8 34
-14 40 -14 12 0 274 -130 369 -183 31 -18 76 -43 100 -56 24 -13 45 -26 48
-30 7 -9 41 -29 68 -41 12 -5 22 -14 22 -19 0 -5 8 -11 18 -15 17 -5 52 -26
62 -36 3 -3 31 -23 63 -44 31 -22 57 -43 57 -48 0 -4 6 -8 13 -8 6 0 29 -15
49 -33 20 -17 51 -43 68 -57 177 -141 492 -453 569 -563 15 -22 31 -40 83
-101 15 -17 28 -34 28 -37 0 -3 9 -17 21 -30 19 -22 100 -138 124 -177 6 -10
12 -19 15 -22 3 -3 34 -52 69 -110 34 -58 66 -112 71 -120 5 -8 26 -49 47 -90
21 -41 40 -77 43 -80 7 -7 58 -117 74 -160 3 -8 10 -22 15 -30 15 -24 41 -87
41 -99 0 -6 4 -19 10 -29 11 -19 20 -42 62 -157 16 -44 32 -91 35 -105 2 -14
11 -39 19 -57 8 -17 14 -42 14 -56 0 -14 7 -38 15 -53 8 -16 15 -43 15 -60 0
-16 4 -34 9 -40 9 -9 26 -86 41 -189 5 -33 13 -73 19 -88 6 -16 11 -47 11 -70
0 -23 7 -75 15 -117 35 -181 35 -808 0 -990 -8 -42 -15 -94 -15 -117 0 -23 -5
-54 -11 -70 -6 -15 -14 -55 -19 -88 -15 -103 -32 -180 -41 -189 -5 -6 -9 -23
-9 -39 0 -16 -6 -43 -14 -60 -8 -18 -16 -45 -19 -62 -3 -16 -10 -46 -17 -65
-27 -73 -38 -107 -55 -160 -18 -58 -40 -114 -55 -142 -6 -10 -10 -22 -10 -28
0 -17 -180 -392 -225 -468 -5 -10 -23 -40 -39 -67 -32 -55 -195 -303 -211
-321 -5 -6 -17 -22 -25 -34 -8 -12 -20 -28 -25 -34 -6 -6 -26 -31 -45 -56 -19
-25 -37 -47 -40 -50 -3 -3 -16 -18 -29 -35 -83 -109 -373 -402 -496 -500 -59
-47 -86 -71 -129 -107 -17 -15 -34 -28 -37 -28 -3 0 -17 -10 -30 -21 -22 -19
-136 -99 -177 -124 -10 -5 -19 -12 -22 -15 -12 -13 -209 -130 -219 -130 -6 0
-11 -4 -11 -8 0 -4 -15 -15 -32 -24 -18 -8 -89 -43 -158 -78 -69 -34 -138 -68
-155 -75 -16 -7 -46 -20 -65 -28 -19 -9 -53 -23 -75 -32 -22 -9 -47 -20 -55
-24 -9 -5 -30 -12 -48 -15 -17 -4 -34 -12 -37 -17 -4 -5 -16 -9 -28 -9 -12 0
-35 -7 -51 -15 -15 -8 -36 -15 -46 -15 -10 0 -31 -7 -46 -15 -16 -8 -41 -15
-56 -15 -15 0 -29 -4 -32 -9 -4 -5 -25 -12 -49 -16 -23 -3 -51 -10 -62 -15
-21 -10 -91 -25 -186 -40 -31 -5 -68 -14 -83 -20 -15 -5 -46 -10 -69 -10 -23
0 -60 -5 -82 -12 -22 -6 -87 -14 -145 -18 -58 -4 -178 -13 -268 -19 -123 -9
-201 -9 -325 0 -89 6 -209 15 -267 19 -58 4 -123 12 -145 18 -22 7 -59 12 -82
12 -23 0 -54 5 -69 10 -15 6 -52 15 -83 20 -95 15 -165 30 -186 40 -11 5 -39
12 -62 15 -24 4 -45 11 -49 16 -3 5 -17 9 -32 9 -15 0 -40 7 -56 15 -15 8 -36
15 -46 15 -10 0 -31 7 -46 15 -16 8 -39 15 -51 15 -12 0 -24 4 -28 9 -3 5 -20
13 -37 17 -18 3 -39 10 -48 15 -8 4 -33 15 -55 24 -22 9 -56 23 -75 32 -19 8
-48 21 -65 28 -16 7 -86 41 -155 75 -69 35 -140 70 -157 78 -18 9 -33 20 -33
24 0 4 -5 8 -11 8 -10 0 -207 117 -219 130 -3 3 -12 10 -22 15 -41 25 -155
105 -177 124 -13 11 -27 21 -30 21 -3 0 -20 13 -37 28 -43 36 -70 60 -129 107
-123 98 -413 391 -496 500 -13 17 -26 32 -29 35 -3 3 -21 25 -40 50 -19 25
-39 50 -45 56 -5 6 -17 22 -25 34 -8 12 -20 28 -25 34 -16 18 -179 266 -211
321 -16 27 -33 57 -39 67 -45 76 -225 451 -225 468 0 6 -4 18 -10 28 -15 28
-37 84 -55 142 -17 53 -28 87 -55 160 -7 19 -14 49 -17 65 -3 17 -11 44 -19
62 -8 17 -14 44 -14 60 0 16 -4 33 -9 39 -9 9 -26 86 -41 189 -5 33 -13 73
-19 88 -6 16 -11 47 -11 70 0 23 -7 75 -15 117 -35 180 -35 843 1 997 8 34 14
82 14 107 0 25 5 57 11 73 6 15 14 55 19 88 15 103 32 180 41 189 5 6 9 24 9
40 0 17 7 44 15 60 8 15 15 39 15 53 0 14 6 39 14 56 8 18 17 43 19 57 3 14
19 61 35 105 42 115 51 138 62 157 6 10 10 23 10 29 0 6 6 25 14 42 8 18 17
39 20 47 3 8 10 22 14 30 5 8 17 33 27 55 34 76 50 110 55 115 3 3 22 39 43
80 21 41 42 82 47 90 5 8 37 62 71 120 35 58 66 107 69 110 3 3 10 12 15 22
24 39 105 155 124 177 12 13 21 27 21 30 0 3 13 20 28 37 52 61 68 79 83 101
77 110 392 422 569 563 17 14 48 40 68 57 20 18 43 33 50 33 6 0 12 4 12 8 0
5 26 26 58 48 31 21 59 41 62 44 10 10 45 31 63 36 9 4 17 10 17 15 0 5 10 14
23 19 26 12 60 32 67 41 3 4 24 17 48 30 24 13 69 38 100 56 95 53 357 183
369 183 6 0 24 6 40 14 15 8 44 21 63 29 19 9 51 23 72 31 20 9 41 16 47 16 6
0 19 4 29 9 21 10 77 30 117 41 17 5 44 13 60 18 17 6 55 18 85 26 30 8 79 22
109 30 29 9 64 16 77 16 13 0 32 4 42 9 20 12 119 30 219 41 40 5 87 13 105
18 18 6 85 13 148 16 63 4 131 10 150 15 48 12 446 13 495 1z"/>
<path d="M3980 8404 c-41 -7 -98 -13 -127 -13 -29 -1 -62 -5 -75 -11 -13 -5
-54 -14 -93 -19 -69 -9 -135 -23 -265 -55 -36 -9 -85 -21 -110 -26 -24 -6 -49
-15 -54 -20 -6 -6 -21 -10 -35 -10 -15 -1 -37 -7 -51 -15 -14 -8 -36 -15 -50
-15 -14 0 -34 -7 -44 -15 -11 -8 -27 -15 -36 -15 -16 0 -59 -17 -102 -41 -10
-5 -23 -9 -29 -9 -12 0 -50 -16 -144 -61 -33 -16 -68 -29 -78 -29 -9 0 -17 -4
-17 -10 0 -5 -12 -13 -27 -16 -16 -4 -30 -10 -33 -14 -3 -3 -25 -17 -50 -30
-180 -94 -156 -80 -280 -159 -47 -30 -109 -70 -138 -90 -30 -20 -61 -40 -70
-46 -9 -5 -19 -13 -22 -16 -3 -3 -43 -34 -90 -69 -47 -35 -90 -69 -96 -75 -6
-6 -39 -33 -73 -60 -77 -63 -383 -371 -446 -450 -26 -33 -51 -62 -55 -65 -22
-16 -292 -401 -323 -460 -4 -8 -23 -42 -41 -75 -19 -33 -62 -116 -96 -185 -34
-69 -66 -132 -71 -140 -5 -8 -12 -22 -15 -30 -3 -8 -10 -24 -14 -35 -5 -11
-18 -42 -30 -70 -12 -27 -25 -59 -30 -70 -4 -11 -11 -29 -13 -40 -3 -11 -15
-45 -27 -75 -12 -30 -25 -72 -30 -93 -4 -21 -13 -44 -19 -50 -6 -6 -11 -25
-11 -42 0 -17 -4 -35 -10 -41 -5 -5 -14 -30 -19 -54 -6 -25 -17 -74 -26 -110
-9 -36 -20 -91 -26 -123 -5 -32 -13 -67 -19 -77 -5 -10 -10 -38 -10 -62 0 -24
-5 -59 -11 -78 -6 -19 -15 -87 -20 -150 -5 -63 -13 -140 -18 -170 -12 -70 -12
-466 0 -545 5 -33 13 -109 18 -170 6 -60 15 -128 20 -150 6 -22 11 -59 11 -83
0 -24 5 -52 10 -62 6 -10 14 -45 19 -77 6 -32 16 -85 25 -118 8 -33 20 -82 27
-110 6 -27 15 -54 20 -60 5 -5 9 -20 9 -35 1 -14 7 -36 15 -50 8 -14 15 -36
15 -50 0 -14 7 -34 15 -44 8 -11 15 -30 15 -42 0 -13 4 -25 9 -29 5 -3 13 -20
17 -38 7 -33 14 -51 58 -150 14 -32 26 -64 26 -71 0 -7 7 -19 15 -26 8 -7 15
-18 15 -24 0 -15 166 -343 181 -356 3 -3 23 -34 44 -70 67 -112 238 -357 269
-385 6 -5 22 -23 35 -40 62 -81 109 -133 266 -292 167 -169 240 -234 400 -355
44 -33 81 -64 83 -69 2 -5 8 -9 14 -9 6 0 27 -14 48 -30 21 -17 40 -30 43 -30
3 0 41 -24 84 -53 44 -30 86 -57 94 -60 8 -4 30 -17 49 -28 80 -49 274 -149
355 -184 17 -7 46 -20 65 -28 31 -14 51 -22 140 -59 14 -5 38 -16 53 -24 16
-8 35 -14 44 -14 8 0 29 -6 46 -14 18 -7 59 -21 92 -31 33 -10 77 -24 98 -31
20 -8 46 -14 57 -14 11 0 28 -4 38 -10 18 -10 83 -25 172 -41 30 -5 64 -13 75
-18 11 -5 51 -12 89 -16 38 -3 77 -10 87 -15 10 -6 48 -10 86 -10 37 -1 95 -7
128 -15 86 -21 684 -21 770 0 33 8 91 14 128 15 38 0 76 4 86 10 10 5 49 12
87 15 38 4 78 11 89 16 11 5 45 13 75 18 89 16 154 31 172 41 10 6 27 10 38
10 11 0 37 6 57 14 21 7 65 21 98 31 33 10 74 24 92 31 17 8 38 14 46 14 9 0
28 6 44 14 15 8 46 22 68 31 68 28 92 38 190 80 75 32 308 152 360 186 17 10
36 22 44 26 8 3 50 30 94 60 43 29 81 53 84 53 3 0 22 13 43 30 21 16 42 30
48 30 6 0 12 4 14 9 2 5 39 36 83 69 160 121 233 186 400 355 157 159 204 211
266 292 13 17 29 35 35 40 31 28 202 273 269 385 21 36 41 67 44 70 15 13 181
341 181 356 0 6 7 17 15 24 8 7 15 19 15 26 0 7 12 39 26 71 44 99 51 117 58
150 4 18 12 35 17 38 5 4 9 16 9 29 0 12 7 31 15 42 8 10 15 30 15 44 0 14 7
36 15 50 8 14 14 36 15 51 0 14 4 29 9 35 5 5 14 32 20 59 7 28 19 77 27 110
9 33 19 86 25 118 5 32 13 67 19 77 5 10 10 38 10 62 0 24 5 61 11 83 5 22 14
90 20 150 5 61 13 137 18 170 12 79 12 475 0 545 -5 30 -13 107 -18 170 -5 63
-14 131 -20 150 -6 19 -11 54 -11 78 0 24 -5 52 -10 62 -6 10 -14 45 -19 77
-6 32 -17 87 -26 123 -9 36 -20 85 -26 110 -5 24 -14 49 -19 54 -6 6 -10 24
-10 41 0 17 -5 36 -11 42 -6 6 -15 29 -19 50 -5 21 -18 63 -30 93 -12 30 -24
64 -27 75 -2 11 -9 29 -13 40 -5 11 -18 43 -30 70 -12 28 -26 61 -32 75 -6 14
-14 32 -19 40 -5 8 -12 22 -15 30 -11 28 -126 255 -160 315 -18 33 -37 67 -41
75 -31 59 -301 444 -323 460 -4 3 -29 32 -55 65 -63 79 -369 387 -446 450 -34
27 -67 54 -73 60 -6 6 -49 40 -96 75 -47 35 -87 66 -90 69 -3 3 -13 11 -22 16
-9 6 -40 26 -70 46 -50 34 -199 130 -243 156 -11 7 -45 25 -75 41 -30 16 -75
39 -100 52 -25 13 -47 27 -50 30 -3 4 -17 10 -32 14 -16 3 -28 11 -28 16 0 6
-8 10 -17 10 -10 0 -45 13 -78 29 -91 43 -132 61 -142 61 -10 0 -60 22 -95 41
-10 5 -26 9 -36 9 -10 0 -27 7 -38 15 -10 8 -30 15 -44 15 -14 0 -36 7 -50 15
-14 8 -36 14 -50 15 -15 0 -30 4 -36 10 -5 5 -30 14 -54 20 -25 5 -74 17 -110
26 -130 32 -196 46 -265 55 -38 5 -80 14 -93 19 -13 6 -44 10 -70 10 -26 0
-87 7 -137 15 -119 19 -703 19 -815 -1z m741 -125 c30 -5 97 -14 149 -20 130
-12 257 -32 266 -41 4 -5 23 -8 43 -8 20 -1 54 -7 76 -15 22 -8 51 -15 65 -15
14 0 38 -7 54 -15 15 -8 39 -15 53 -15 13 0 34 -5 46 -12 12 -6 38 -15 57 -19
36 -7 93 -26 120 -39 9 -4 30 -11 48 -14 17 -4 34 -12 37 -17 4 -5 13 -9 22
-9 14 0 37 -9 123 -47 19 -9 49 -22 65 -29 92 -40 230 -108 233 -116 2 -4 12
-8 22 -8 9 0 23 -7 30 -15 7 -8 16 -15 21 -15 5 0 38 -18 74 -40 36 -22 68
-40 71 -40 5 0 66 -41 74 -51 3 -3 12 -8 20 -12 15 -7 43 -24 64 -40 301 -218
347 -257 561 -471 153 -154 189 -192 260 -281 22 -28 43 -51 47 -53 5 -2 8
-10 8 -18 0 -8 4 -14 8 -14 8 0 123 -153 131 -175 2 -5 17 -26 32 -46 16 -20
29 -39 29 -41 0 -3 19 -34 43 -70 23 -35 56 -91 72 -124 17 -32 33 -61 36 -64
6 -5 120 -239 144 -295 21 -48 47 -109 55 -125 4 -9 11 -30 14 -48 4 -17 12
-34 17 -37 5 -4 9 -13 9 -22 0 -8 6 -29 14 -46 8 -18 16 -43 19 -57 5 -24 12
-47 37 -120 7 -19 15 -51 17 -70 3 -19 9 -40 14 -45 4 -6 13 -35 18 -65 6 -30
17 -89 26 -130 9 -41 20 -106 25 -145 4 -38 13 -86 18 -105 6 -19 13 -96 16
-171 4 -74 11 -151 16 -170 13 -44 13 -304 0 -348 -5 -19 -12 -96 -16 -170 -3
-75 -10 -152 -16 -171 -5 -19 -14 -66 -18 -105 -5 -38 -16 -104 -25 -145 -9
-41 -20 -100 -26 -130 -5 -30 -14 -59 -18 -65 -5 -5 -11 -26 -14 -45 -2 -19
-10 -51 -17 -70 -19 -56 -31 -93 -40 -125 -16 -55 -65 -190 -71 -195 -4 -3
-10 -20 -14 -37 -3 -18 -11 -33 -16 -33 -5 0 -9 -9 -9 -19 0 -11 -7 -32 -14
-48 -8 -15 -17 -35 -20 -43 -3 -8 -10 -22 -15 -30 -5 -8 -30 -58 -56 -110 -25
-52 -62 -122 -80 -155 -19 -33 -39 -69 -45 -80 -19 -35 -34 -60 -58 -92 -12
-17 -22 -34 -22 -38 0 -4 -13 -24 -30 -45 -16 -21 -30 -41 -30 -45 0 -6 -116
-163 -129 -175 -3 -3 -28 -34 -56 -70 -72 -94 -103 -128 -270 -295 -131 -131
-189 -186 -282 -262 -12 -10 -31 -26 -42 -36 -12 -9 -26 -17 -31 -17 -6 0 -10
-4 -10 -8 0 -13 -253 -192 -270 -192 -5 0 -10 -4 -12 -8 -1 -4 -39 -29 -83
-55 -44 -26 -87 -52 -95 -57 -8 -5 -35 -20 -60 -32 -25 -13 -47 -25 -50 -28
-10 -10 -237 -116 -310 -145 -25 -9 -54 -21 -65 -26 -99 -40 -146 -57 -190
-69 -28 -8 -44 -13 -138 -47 -20 -7 -48 -13 -62 -13 -13 0 -26 -4 -30 -9 -3
-6 -27 -13 -53 -16 -26 -4 -56 -10 -67 -15 -23 -10 -110 -27 -210 -41 -38 -5
-81 -13 -95 -18 -14 -5 -72 -12 -130 -15 -58 -3 -121 -10 -140 -16 -46 -13
-554 -13 -600 0 -19 6 -82 13 -140 16 -58 3 -116 10 -130 15 -14 5 -56 13 -95
18 -100 14 -187 31 -210 41 -11 5 -41 11 -67 15 -26 3 -50 10 -53 16 -4 5 -17
9 -30 9 -14 0 -42 6 -62 13 -94 34 -110 39 -138 47 -45 12 -98 31 -175 63 -19
8 -55 22 -80 32 -75 30 -300 135 -310 145 -3 3 -25 15 -50 28 -25 12 -52 27
-60 32 -8 5 -51 31 -95 57 -44 26 -82 51 -83 55 -2 4 -7 8 -12 8 -17 0 -270
179 -270 192 0 4 -4 8 -10 8 -5 0 -19 8 -31 18 -11 9 -30 25 -42 35 -93 76
-151 131 -282 262 -167 167 -198 201 -270 295 -28 36 -53 67 -56 70 -13 12
-129 169 -129 175 0 4 -14 24 -30 45 -17 21 -30 41 -30 45 0 4 -10 21 -22 38
-24 32 -39 57 -58 92 -6 11 -26 47 -45 80 -31 55 -114 220 -129 255 -3 8 -10
22 -14 30 -27 48 -42 84 -42 101 0 10 -4 19 -9 19 -5 0 -13 15 -16 33 -4 17
-10 34 -14 37 -6 5 -55 140 -71 195 -8 30 -20 66 -41 128 -6 17 -14 48 -16 67
-3 19 -9 40 -14 45 -4 6 -13 35 -18 65 -6 30 -17 89 -26 130 -9 41 -20 107
-25 145 -4 39 -13 86 -18 105 -6 19 -13 96 -16 171 -4 74 -11 151 -16 170 -13
44 -13 304 0 348 5 19 12 96 16 170 3 75 10 152 16 171 5 19 14 67 18 105 5
39 16 104 25 145 9 41 20 100 26 130 5 30 14 59 18 65 5 5 11 26 14 45 2 19
10 51 17 70 25 73 32 96 37 120 3 14 11 39 19 57 8 17 14 38 14 46 0 9 4 18 9
22 5 3 13 20 17 37 3 18 10 39 14 48 4 8 14 31 22 50 28 68 46 106 108 235 35
72 66 132 69 135 3 3 20 32 36 64 17 33 49 89 72 124 24 36 43 67 43 70 0 2
13 21 29 41 15 20 30 41 32 46 8 22 123 175 131 175 4 0 8 6 8 14 0 8 3 16 8
18 4 2 25 25 47 53 71 89 107 127 260 281 214 214 260 253 561 471 21 16 49
33 64 40 8 4 17 9 20 12 8 10 69 51 74 51 3 0 35 18 71 40 36 22 69 40 74 40
5 0 14 7 21 15 7 8 21 15 30 15 10 0 20 4 22 8 3 8 131 71 236 118 151 66 169
74 185 74 9 0 18 4 22 9 3 5 20 13 37 17 18 3 39 10 48 14 27 13 84 32 120 39
19 4 45 13 57 19 12 7 33 12 46 12 14 0 38 7 53 15 16 8 40 15 54 15 14 0 43
7 65 15 22 8 56 14 76 15 20 0 39 3 43 8 9 8 135 28 266 42 52 5 115 13 140
19 63 13 605 13 671 0z"/>
<path d="M4418 7976 c-16 -11 -18 -31 -18 -150 0 -112 -3 -138 -15 -142 -23
-9 -22 -362 1 -371 31 -12 46 21 51 111 3 48 10 89 14 92 5 3 9 63 9 134 0 70
3 135 6 144 11 30 62 12 77 -26 3 -10 11 -18 17 -18 5 0 10 -9 10 -20 0 -11 7
-23 15 -26 8 -4 15 -12 15 -20 0 -8 4 -14 9 -14 5 0 13 -10 17 -22 3 -12 10
-26 15 -32 42 -50 49 -61 49 -73 0 -7 5 -13 10 -13 6 0 10 -6 10 -14 0 -8 7
-16 15 -20 8 -3 15 -14 15 -25 0 -10 7 -21 15 -25 8 -3 15 -12 15 -21 0 -8 4
-15 10 -15 5 0 12 -11 16 -25 3 -14 10 -25 15 -25 5 0 19 -18 31 -40 16 -28
30 -40 46 -40 43 0 49 18 57 163 4 75 11 140 16 143 13 7 12 341 -1 349 -6 3
-19 3 -30 0 -18 -6 -20 -15 -20 -83 -1 -52 -5 -83 -15 -96 -12 -15 -15 -52
-15 -161 0 -158 -6 -176 -50 -145 -14 10 -35 35 -45 54 -11 20 -23 36 -27 36
-5 0 -8 7 -8 15 0 8 -4 15 -10 15 -5 0 -12 11 -16 24 -3 14 -12 27 -20 30 -8
3 -14 12 -14 21 0 8 -4 15 -9 15 -5 0 -13 9 -16 20 -4 11 -17 32 -31 47 -13
14 -24 30 -24 36 0 5 -13 26 -30 47 -16 21 -30 43 -30 48 0 6 -13 26 -30 44
-16 18 -30 36 -30 40 0 10 -38 48 -47 48 -5 0 -16 -7 -25 -14z"/>
<path d="M3875 7940 c-18 -20 -18 -22 -2 -49 9 -16 17 -49 17 -73 0 -23 7 -52
15 -62 8 -11 15 -40 15 -64 0 -25 6 -50 15 -58 9 -10 15 -34 15 -64 0 -27 5
-52 10 -55 6 -3 10 -19 10 -35 0 -16 -4 -32 -10 -35 -5 -3 -10 -17 -10 -31 0
-29 -73 -104 -102 -104 -11 0 -26 -7 -34 -15 -11 -10 -36 -15 -84 -15 -48 0
-73 5 -84 15 -8 8 -20 15 -26 15 -20 0 -60 44 -60 66 0 12 -7 24 -15 28 -11 4
-15 21 -15 58 -1 31 -7 61 -15 72 -9 12 -15 42 -15 72 0 29 -5 54 -11 56 -5 2
-13 24 -16 48 -2 25 -11 59 -19 77 -8 17 -14 39 -14 48 0 12 -7 15 -27 13 -26
-3 -28 -7 -31 -54 -2 -36 1 -54 13 -64 10 -8 15 -29 15 -62 0 -31 6 -55 15
-64 9 -9 15 -34 15 -59 0 -24 4 -46 9 -49 5 -4 12 -25 16 -49 8 -49 35 -117
47 -117 4 0 8 -6 8 -13 0 -7 10 -19 21 -27 12 -8 27 -20 33 -26 6 -6 33 -14
59 -18 25 -4 49 -12 53 -17 4 -6 11 -6 20 1 7 7 42 14 76 17 35 3 72 12 83 19
11 8 27 14 37 14 10 0 18 5 18 10 0 6 5 10 11 10 20 0 79 71 79 94 0 13 7 29
15 36 9 8 15 30 15 57 0 26 -6 51 -15 59 -9 10 -15 35 -15 67 0 30 -7 60 -15
71 -8 11 -15 39 -15 62 0 23 -7 55 -15 70 -8 16 -15 41 -15 55 0 33 -28 89
-44 89 -7 0 -21 -9 -31 -20z"/>
<path d="M5364 7780 c-4 -22 -10 -40 -15 -40 -5 0 -9 -15 -9 -32 0 -18 -7 -46
-15 -62 -8 -15 -15 -41 -15 -56 0 -16 -7 -35 -15 -44 -8 -8 -15 -32 -15 -54 0
-23 -6 -45 -15 -52 -9 -7 -15 -29 -15 -52 0 -25 -5 -41 -15 -44 -10 -4 -15
-20 -15 -49 0 -24 -4 -47 -10 -50 -5 -3 -10 -17 -10 -31 0 -19 5 -24 26 -24
32 0 53 20 60 60 4 17 11 33 15 36 5 3 9 17 9 32 0 15 7 40 15 56 8 15 15 43
15 61 0 19 7 40 15 49 8 8 15 32 15 53 0 22 7 48 15 59 8 10 15 35 15 54 0 19
7 44 15 54 9 11 15 41 15 68 0 47 -1 48 -30 48 -27 0 -30 -4 -36 -40z"/>
<path d="M5773 7693 c-9 -3 -13 -27 -13 -68 0 -43 -5 -66 -15 -75 -12 -10 -15
-40 -15 -150 0 -76 -4 -140 -9 -142 -4 -1 -12 -61 -15 -133 -7 -125 -6 -131
14 -143 25 -15 50 -4 96 42 40 40 72 66 106 89 15 9 41 31 58 47 17 17 33 30
35 30 2 0 18 12 34 28 17 15 44 38 62 52 47 37 169 159 169 169 0 8 -33 21
-57 21 -6 0 -25 -13 -41 -30 -17 -16 -35 -30 -41 -30 -6 0 -11 -7 -11 -15 0
-8 -4 -15 -9 -15 -5 0 -37 -27 -72 -60 -35 -33 -68 -60 -72 -60 -4 0 -18 -11
-31 -25 -13 -14 -28 -25 -35 -25 -6 0 -11 -7 -11 -15 0 -8 -5 -15 -11 -15 -5
0 -23 -14 -38 -31 -20 -21 -36 -30 -52 -27 -21 3 -24 9 -27 52 -2 27 0 56 4
65 8 16 30 219 40 363 4 61 2 81 -10 93 -8 8 -16 15 -18 14 -2 0 -9 -3 -15 -6z"/>
<path d="M2438 7406 c-26 -19 -23 -29 22 -77 22 -24 40 -49 40 -56 0 -8 7 -16
15 -19 8 -4 15 -10 15 -15 0 -4 12 -21 28 -37 15 -16 34 -39 42 -52 8 -12 21
-28 28 -36 6 -7 12 -15 12 -18 0 -3 11 -17 25 -32 37 -39 60 -93 48 -105 -8
-8 -13 -7 -17 0 -4 6 -32 11 -62 11 -39 0 -56 4 -60 15 -4 10 -21 15 -54 15
-30 0 -52 6 -60 15 -8 10 -30 15 -61 15 -26 0 -50 4 -53 9 -3 5 -31 12 -61 16
-30 3 -55 10 -55 14 0 5 -26 11 -57 13 -31 3 -59 10 -61 16 -6 19 -51 14 -75
-9 -21 -19 -21 -21 -4 -33 9 -7 17 -18 17 -25 0 -6 4 -11 9 -11 5 0 20 -17 32
-37 23 -38 34 -51 96 -121 18 -21 33 -40 33 -44 0 -4 12 -20 26 -35 43 -46
114 -141 114 -152 0 -6 7 -11 15 -11 8 0 15 -5 15 -11 0 -19 28 -39 55 -39 31
0 43 24 21 45 -9 9 -16 21 -16 26 0 6 -11 20 -25 33 -14 13 -25 28 -25 35 0 6
-5 11 -10 11 -6 0 -15 11 -20 25 -5 14 -14 25 -20 25 -5 0 -10 4 -10 9 0 5
-18 29 -40 52 -22 24 -40 46 -40 50 0 4 -13 21 -30 37 -16 17 -30 37 -30 44 0
8 -6 20 -12 26 -10 10 -10 15 2 22 22 14 56 12 69 -4 7 -8 33 -16 59 -19 59
-7 158 -30 168 -40 4 -4 21 -7 38 -7 17 0 44 -7 60 -15 15 -8 45 -15 65 -15
20 0 45 -7 55 -15 25 -19 162 -21 169 -2 2 6 -9 28 -24 48 -16 20 -29 39 -29
42 0 3 -18 25 -40 48 -22 24 -43 51 -46 61 -3 10 -10 18 -15 18 -5 0 -9 4 -9
9 0 6 -13 25 -30 43 -16 18 -30 36 -30 40 0 5 -8 16 -17 26 -23 24 -50 56 -92
112 -42 54 -67 80 -78 80 -4 0 -16 -7 -25 -14z"/>
<path d="M6518 7149 c-25 -27 -48 -53 -50 -58 -4 -11 -100 -121 -155 -178 -24
-24 -43 -47 -43 -51 0 -4 -25 -34 -55 -67 -59 -65 -68 -97 -32 -116 12 -7 32
-23 44 -36 12 -12 25 -23 28 -23 3 0 30 -25 60 -55 58 -57 105 -74 105 -38 0
18 -84 103 -101 103 -5 0 -9 7 -9 15 0 8 -4 15 -10 15 -16 0 -50 39 -50 58 0
10 14 32 30 50 17 18 30 35 30 37 0 2 15 20 34 39 36 38 82 49 92 21 4 -8 12
-15 20 -15 8 0 14 -7 14 -15 0 -8 6 -15 14 -15 8 0 16 -4 18 -8 2 -4 22 -23
45 -41 35 -28 45 -32 58 -21 8 7 15 16 15 21 0 9 -44 54 -81 82 -101 77 -110
99 -61 147 15 15 42 45 61 68 45 55 68 54 127 -3 25 -25 48 -45 52 -45 3 0 21
-14 38 -31 35 -34 64 -34 64 -1 0 18 -63 92 -79 92 -4 0 -29 20 -55 45 -27 25
-52 45 -57 45 -5 0 -9 7 -9 15 0 10 -10 15 -27 15 -20 -1 -41 -15 -75 -51z"/>
<path d="M4115 6979 c-60 -5 -120 -14 -133 -19 -13 -6 -40 -10 -62 -10 -21 0
-51 -5 -67 -11 -15 -7 -48 -15 -73 -19 -25 -4 -60 -13 -77 -19 -18 -6 -48 -16
-65 -22 -18 -6 -46 -14 -63 -17 -16 -2 -39 -11 -50 -18 -11 -8 -30 -14 -42
-14 -13 0 -23 -4 -23 -9 0 -5 -12 -12 -27 -16 -15 -3 -61 -22 -102 -42 -42
-19 -85 -39 -96 -44 -11 -5 -47 -25 -80 -44 -33 -19 -68 -38 -77 -41 -10 -3
-18 -10 -18 -14 0 -4 -8 -10 -17 -14 -23 -7 -38 -17 -153 -101 -178 -130 -366
-305 -461 -430 -13 -16 -26 -32 -29 -35 -28 -24 -187 -256 -229 -335 -37 -68
-41 -75 -51 -92 -6 -10 -13 -25 -16 -33 -4 -8 -20 -44 -36 -80 -16 -36 -34
-76 -40 -90 -6 -14 -16 -38 -22 -55 -19 -46 -37 -97 -45 -130 -4 -17 -13 -40
-19 -52 -7 -12 -12 -34 -12 -48 0 -14 -5 -35 -11 -46 -6 -11 -15 -44 -20 -72
-75 -398 -75 -730 0 -1124 5 -28 14 -61 20 -72 6 -11 11 -33 11 -48 0 -16 7
-38 15 -49 8 -10 15 -29 15 -40 0 -12 7 -35 15 -50 8 -16 15 -37 15 -46 0 -9
6 -29 14 -45 8 -15 19 -39 24 -53 8 -21 122 -254 157 -321 10 -19 41 -26 47
-10 8 20 326 181 359 181 6 0 25 6 42 14 43 18 111 36 177 46 30 5 73 14 95
19 52 14 417 13 475 0 25 -6 72 -14 105 -18 33 -4 83 -14 110 -20 48 -12 72
-19 210 -56 33 -9 69 -20 80 -24 43 -17 123 -41 135 -41 7 0 26 -6 43 -13 45
-19 97 -37 132 -47 17 -4 41 -12 55 -18 14 -5 52 -18 85 -28 33 -10 64 -22 69
-26 6 -4 21 -8 35 -8 15 0 39 -7 55 -15 15 -8 40 -15 55 -15 14 0 39 -7 55
-15 15 -8 43 -15 61 -15 19 0 46 -5 62 -11 15 -6 62 -15 103 -20 41 -5 100
-13 130 -18 71 -12 459 -12 530 0 30 5 89 13 130 17 41 5 85 14 97 20 12 7 36
12 53 12 17 0 41 5 53 12 12 6 38 15 57 19 35 7 76 21 140 46 19 8 44 18 55
22 11 4 49 22 85 39 36 18 71 32 78 32 6 0 12 4 12 9 0 5 9 13 20 16 22 7 158
96 225 148 68 52 228 218 291 302 69 93 83 120 96 195 5 30 16 93 24 140 27
158 38 395 25 583 -12 197 -46 421 -70 466 -6 11 -11 32 -11 46 0 14 -5 36
-12 48 -6 12 -15 35 -19 52 -8 33 -26 84 -45 130 -6 17 -16 41 -22 55 -19 48
-73 165 -83 180 -5 8 -12 22 -15 30 -3 8 -9 22 -14 30 -5 8 -19 33 -30 55 -12
23 -56 92 -98 155 l-78 115 -106 3 -106 3 -4 -663 c-4 -590 -7 -667 -21 -700
-10 -21 -17 -52 -17 -70 0 -18 -7 -42 -15 -52 -8 -11 -15 -28 -15 -37 0 -24
-47 -114 -94 -179 -52 -71 -104 -120 -191 -178 -84 -57 -103 -74 -111 -107 -3
-14 -10 -28 -15 -31 -5 -3 -9 -27 -9 -54 0 -69 27 -115 121 -209 71 -70 231
-141 317 -141 45 0 71 -19 73 -53 2 -52 -3 -94 -17 -121 -8 -16 -14 -34 -14
-41 0 -7 -9 -20 -20 -30 -16 -14 -30 -16 -77 -12 -198 20 -359 98 -493 237
-87 91 -90 95 -111 140 -47 102 -49 111 -49 215 0 104 2 113 49 215 19 41 20
42 72 103 23 26 74 68 113 94 39 26 86 63 104 82 39 40 82 105 82 123 0 7 6
25 14 40 8 14 17 46 21 69 4 24 11 50 16 59 19 36 25 268 21 768 l-4 532 -403
0 c-222 0 -411 3 -421 7 -18 7 -18 14 4 -192 l7 -60 77 3 c123 6 148 -16 148
-129 l0 -80 78 3 77 3 5 82 c5 73 8 83 32 102 21 17 40 21 98 21 66 0 74 -2
101 -29 l29 -30 -3 -488 c-2 -305 -7 -503 -14 -528 -25 -94 -84 -163 -180
-211 -49 -25 -67 -29 -143 -29 -80 0 -111 7 -160 36 -8 5 -22 12 -30 16 -49
23 -121 120 -135 183 -4 19 -11 118 -14 220 -4 102 -8 186 -9 187 -1 2 -12 2
-24 2 -63 -3 -148 15 -174 36 l-28 22 11 189 c10 154 9 227 -2 394 -8 113 -19
221 -24 240 -6 19 -13 62 -17 95 -15 135 -4 147 133 151 91 3 99 5 118 29 l21
25 537 0 c310 0 537 4 537 9 0 23 -337 291 -422 336 -21 11 -38 22 -38 26 0 4
-8 10 -17 13 -10 3 -45 22 -78 41 -33 19 -69 39 -80 44 -11 5 -54 25 -96 44
-41 20 -87 39 -102 42 -15 4 -27 11 -27 16 0 5 -10 9 -23 9 -12 0 -31 6 -42
14 -11 7 -33 16 -50 18 -16 3 -45 11 -62 17 -18 6 -48 16 -65 22 -18 6 -53 14
-78 18 -25 4 -51 11 -59 15 -8 5 -43 13 -80 18 -36 5 -93 13 -126 18 -91 14
-496 20 -620 9z m-881 -675 c34 -13 41 -48 46 -219 l5 -170 80 -7 c113 -9 257
-39 320 -66 130 -58 195 -101 286 -191 63 -64 119 -134 119 -150 0 -6 4 -11 9
-11 5 0 11 -8 15 -17 3 -10 9 -25 14 -33 26 -44 42 -80 42 -97 0 -10 7 -27 15
-37 8 -11 15 -31 15 -45 0 -14 7 -44 15 -66 15 -42 20 -192 7 -212 -18 -28
-165 -59 -206 -43 -29 11 -40 45 -54 165 -16 138 -69 248 -167 352 -38 40 -75
73 -82 73 -7 0 -13 4 -13 8 0 12 -83 52 -108 52 -11 0 -32 4 -45 9 -21 8 -26
6 -31 -12 -9 -33 -5 -703 4 -842 10 -139 42 -312 70 -380 5 -11 18 -48 29 -83
12 -34 25 -70 30 -80 5 -9 24 -48 43 -87 18 -38 39 -76 46 -83 6 -7 12 -18 12
-24 0 -6 11 -26 25 -44 14 -18 25 -35 25 -39 0 -19 140 -186 242 -288 74 -75
118 -127 118 -140 0 -39 -113 -167 -148 -167 -40 0 -231 184 -339 326 -45 59
-109 149 -116 164 -4 8 -21 38 -37 65 -27 46 -82 156 -115 230 -38 85 -45 105
-45 122 0 10 -4 23 -9 29 -16 18 -60 198 -71 297 -5 42 -14 86 -20 97 -6 12
-10 187 -10 489 l0 471 -105 0 -105 0 -1 -427 c0 -236 -5 -455 -10 -488 -5
-33 -13 -94 -17 -136 -5 -42 -13 -82 -17 -90 -5 -8 -12 -34 -16 -59 -4 -25
-11 -58 -17 -75 -6 -16 -18 -55 -27 -85 -9 -30 -24 -71 -32 -90 -8 -19 -18
-44 -22 -55 -26 -67 -114 -234 -167 -316 -87 -134 -166 -231 -274 -337 -150
-146 -166 -154 -216 -104 -54 52 -104 122 -104 144 0 7 44 56 98 108 111 108
173 177 207 230 13 20 30 43 37 51 12 12 29 38 85 134 17 29 77 154 97 200 9
22 21 48 26 57 6 10 10 25 10 34 0 9 6 30 14 47 19 46 37 114 45 177 4 30 13
75 20 100 8 33 11 173 9 505 -3 403 -5 460 -18 456 -8 -2 -34 -7 -58 -12 -100
-20 -239 -143 -301 -267 -41 -82 -57 -135 -71 -237 -15 -112 -26 -142 -54
-149 -31 -8 -171 18 -193 37 -19 14 -17 198 2 244 8 19 15 46 15 59 0 12 4 25
9 29 5 3 12 18 16 33 8 36 51 122 96 192 45 68 168 194 209 213 19 9 53 30 60
38 10 11 91 49 105 49 8 0 15 4 15 8 0 16 207 61 325 70 l80 7 5 178 c5 173 6
179 29 198 18 15 39 19 101 19 43 0 86 -3 94 -6z m1477 -5 c31 -16 57 -101 80
-258 5 -36 13 -78 18 -95 5 -17 12 -80 15 -141 4 -60 11 -128 16 -150 12 -52
12 -268 0 -320 -5 -22 -12 -89 -16 -150 -3 -60 -10 -124 -15 -141 -5 -17 -14
-59 -19 -95 -5 -35 -17 -100 -25 -144 -9 -44 -22 -159 -30 -255 -11 -146 -11
-204 0 -350 8 -96 20 -209 29 -250 8 -41 19 -99 25 -127 5 -29 13 -58 17 -65
4 -6 11 -28 15 -47 11 -55 49 -159 98 -273 38 -86 24 -113 -64 -123 -33 -3
-79 -9 -101 -11 -37 -5 -43 -3 -63 24 -11 17 -21 33 -21 37 0 4 -7 23 -16 43
-9 21 -22 52 -30 70 -8 18 -14 39 -14 46 0 8 -7 27 -15 42 -8 16 -15 40 -15
55 0 14 -4 29 -9 35 -5 5 -15 34 -21 64 -6 30 -18 87 -26 125 -9 39 -19 107
-24 153 -5 45 -14 99 -19 120 -14 48 -14 406 -1 452 6 19 15 80 20 135 6 55
17 141 26 190 8 50 19 128 25 175 5 47 14 101 19 120 13 46 13 554 0 600 -5
19 -14 73 -19 120 -5 47 -17 119 -27 160 -9 41 -17 104 -18 139 -1 63 -1 65
29 73 94 27 148 32 176 17z m-281 -109 c14 0 50 -70 50 -98 0 -15 5 -43 11
-62 6 -19 15 -66 19 -105 4 -38 13 -104 20 -145 17 -106 8 -588 -12 -649 -18
-54 -47 -72 -97 -60 -20 5 -49 9 -64 9 -16 0 -43 10 -59 22 l-30 21 7 111 c17
239 5 577 -24 681 -6 22 -11 57 -11 77 0 20 -4 39 -9 42 -13 8 -23 71 -15 100
4 19 17 29 52 40 48 16 117 25 140 19 8 -2 17 -3 22 -3z m-15 -1491 c19 -19
20 -30 17 -253 -4 -219 1 -305 29 -486 5 -36 13 -90 18 -121 5 -30 13 -65 20
-77 6 -11 11 -34 11 -50 0 -16 7 -43 15 -58 8 -16 15 -39 15 -50 0 -12 7 -35
15 -50 8 -16 15 -37 15 -46 0 -9 4 -19 9 -22 14 -9 22 -66 11 -85 -10 -20 -81
-40 -167 -48 -47 -4 -53 -3 -69 22 -20 31 -53 121 -54 146 0 9 -7 30 -15 45
-8 16 -15 41 -15 55 0 15 -7 43 -15 62 -8 20 -15 51 -15 70 0 18 -5 38 -10 43
-6 6 -15 48 -20 95 -6 46 -15 116 -20 154 -17 134 -23 388 -11 520 14 165 17
168 135 159 60 -5 86 -11 101 -25z m557 9 c63 -19 74 -44 60 -136 -15 -97 -15
-310 -1 -388 6 -32 15 -90 19 -129 11 -88 50 -264 70 -310 5 -11 19 -51 31
-88 12 -37 26 -70 30 -73 5 -3 9 -16 9 -28 0 -13 7 -29 15 -36 8 -7 15 -27 15
-45 0 -44 -27 -60 -123 -72 -90 -11 -114 -3 -136 42 -8 17 -20 42 -28 57 -7
14 -13 34 -13 45 0 10 -7 27 -15 37 -8 11 -15 30 -15 42 0 13 -4 25 -9 29 -6
3 -13 26 -17 50 -3 25 -10 48 -15 51 -5 3 -9 19 -9 35 0 16 -7 46 -15 66 -8
19 -15 52 -15 72 0 21 -6 60 -14 87 -19 65 -29 318 -20 505 9 186 15 199 101
199 31 0 74 -5 95 -12z"/>
<path d="M7111 6676 c-7 -9 -20 -16 -28 -16 -7 0 -16 -7 -19 -15 -4 -8 -12
-15 -20 -15 -8 0 -14 -4 -14 -9 0 -5 -10 -13 -22 -16 -11 -4 -31 -17 -42 -29
-24 -24 -54 -44 -78 -52 -9 -3 -19 -12 -22 -20 -3 -8 -12 -14 -21 -14 -8 0
-15 -5 -15 -10 0 -6 -11 -15 -25 -20 -14 -5 -25 -14 -25 -20 0 -5 -6 -10 -14
-10 -8 0 -16 -3 -18 -7 -1 -5 -28 -25 -58 -45 -88 -59 -102 -75 -87 -98 6 -11
17 -20 24 -20 16 0 73 33 73 43 0 4 7 7 15 7 8 0 15 5 15 10 0 6 10 15 23 20
32 14 60 33 73 50 10 12 14 12 29 0 14 -12 17 -26 13 -82 -3 -37 -10 -73 -16
-80 -5 -7 -12 -51 -14 -97 -2 -55 -8 -86 -16 -89 -18 -6 -15 -63 6 -78 30 -23
42 -16 42 24 0 20 7 50 15 66 8 16 15 54 15 88 0 63 30 148 53 148 7 0 24 -13
37 -30 14 -16 30 -29 36 -30 6 0 17 -7 24 -15 9 -10 32 -15 77 -15 54 0 70 4
99 26 52 40 74 83 74 146 0 37 -5 60 -15 68 -8 7 -15 20 -15 30 0 10 -7 23
-15 30 -8 7 -15 18 -15 26 0 7 -13 28 -30 46 -16 18 -30 37 -30 42 0 5 -11 19
-24 31 -13 12 -25 27 -27 34 -4 10 -8 9 -18 -3z m46 -113 c13 -14 23 -32 23
-40 0 -7 4 -13 10 -13 5 0 19 -21 31 -47 22 -49 22 -134 0 -141 -6 -2 -11 -10
-11 -18 0 -8 -6 -14 -14 -14 -8 0 -16 -7 -20 -15 -4 -11 -21 -15 -66 -15 -45
0 -62 4 -66 15 -4 8 -12 15 -20 15 -8 0 -14 6 -14 14 0 8 -3 16 -8 18 -4 2
-22 22 -40 44 -42 54 -43 92 -2 122 16 12 34 22 40 22 6 0 13 7 16 15 4 8 12
15 19 15 7 0 15 3 17 8 5 12 52 41 68 41 8 1 25 -11 37 -26z"/>
<path d="M1540 6501 c0 -28 4 -51 9 -51 5 0 13 -10 17 -22 6 -20 13 -31 42
-63 6 -7 12 -18 12 -24 0 -5 6 -16 13 -23 14 -16 33 -45 47 -73 6 -11 18 -32
28 -46 50 -78 112 -181 112 -188 0 -5 7 -11 15 -15 8 -3 15 -12 15 -21 0 -9
12 -27 26 -40 22 -20 29 -22 45 -12 10 6 19 15 19 20 0 7 -29 57 -40 67 -11
11 -40 72 -40 86 0 8 4 14 9 14 5 0 26 27 46 60 20 33 41 60 46 60 5 0 9 6 9
13 0 7 14 27 30 45 17 18 30 35 30 38 0 2 8 13 17 24 14 16 30 20 79 20 43 0
65 -5 74 -15 7 -8 16 -15 21 -15 5 0 9 7 9 15 0 8 5 15 10 15 6 0 10 9 10 20
0 11 -7 20 -15 20 -8 0 -15 5 -15 10 0 6 -18 10 -39 10 -22 0 -46 7 -55 15 -8
9 -33 15 -60 15 -26 0 -51 6 -60 15 -10 10 -35 15 -76 15 -45 0 -62 4 -66 15
-5 11 -22 15 -68 15 -34 0 -66 4 -72 10 -5 5 -49 13 -97 16 l-87 7 0 -52z
m208 -31 c17 -9 76 -24 165 -40 56 -10 77 -24 77 -52 0 -21 -60 -118 -72 -118
-5 0 -8 -6 -8 -12 0 -16 -72 -98 -85 -98 -13 0 -55 50 -55 67 0 7 -4 13 -8 13
-5 0 -19 20 -31 45 -12 25 -26 45 -31 45 -4 0 -11 8 -14 18 -9 24 -32 63 -43
71 -4 3 -14 17 -21 30 -12 20 -12 25 0 32 18 12 104 11 126 -1z"/>
<path d="M7390 5965 c-7 -8 -18 -15 -25 -15 -7 0 -16 -11 -19 -25 -4 -14 -11
-25 -16 -25 -6 0 -10 -66 -10 -171 l0 -171 -29 -29 c-26 -26 -36 -29 -88 -29
-57 1 -103 22 -103 48 0 5 -7 12 -15 16 -8 3 -15 13 -15 21 0 9 -7 23 -15 31
-10 11 -15 37 -15 87 -1 84 -18 120 -44 94 -22 -21 -22 -130 -1 -147 8 -7 15
-25 15 -41 0 -16 3 -29 8 -29 4 0 18 -20 31 -45 13 -25 28 -45 32 -45 5 0 9
-6 9 -12 0 -39 162 -62 224 -33 59 28 69 63 67 245 -1 135 1 161 14 166 8 4
15 12 15 19 0 18 62 45 88 38 12 -3 22 -9 22 -14 0 -5 7 -9 15 -9 9 0 24 -13
33 -30 9 -16 20 -30 25 -30 4 0 7 -30 7 -66 0 -36 5 -74 10 -85 14 -25 47 -24
55 2 9 27 -3 127 -16 134 -5 4 -9 15 -9 26 0 11 -7 22 -15 25 -8 4 -15 11 -15
16 0 13 -51 63 -72 71 -10 3 -18 11 -18 17 0 17 -115 12 -130 -5z"/>
<path d="M1172 5893 c2 -22 10 -29 38 -34 19 -4 36 -12 38 -18 2 -6 17 -11 33
-11 16 0 29 -4 29 -10 0 -5 12 -12 28 -16 28 -6 84 -28 114 -44 10 -6 26 -10
36 -10 10 0 27 -7 38 -15 10 -8 28 -15 40 -15 27 0 57 -33 52 -57 -2 -13 -14
-19 -40 -21 -20 -2 -42 -10 -48 -18 -7 -8 -29 -14 -50 -14 -21 0 -43 -7 -50
-15 -7 -8 -29 -15 -49 -15 -20 0 -45 -7 -55 -15 -11 -8 -32 -15 -47 -15 -15 0
-30 -4 -33 -9 -3 -5 -26 -12 -51 -15 -24 -4 -47 -11 -50 -17 -4 -5 -23 -9 -44
-9 -22 0 -44 -6 -51 -15 -7 -8 -20 -15 -30 -15 -18 0 -50 -30 -50 -46 1 -10
61 -39 103 -48 15 -4 27 -11 27 -16 0 -6 14 -10 30 -10 18 0 33 -6 36 -15 4
-8 18 -15 34 -15 15 0 33 -7 40 -15 7 -8 25 -15 41 -15 16 0 29 -4 29 -10 0
-5 7 -10 16 -10 15 0 40 -9 119 -45 17 -7 42 -16 58 -19 15 -4 27 -11 27 -16
0 -6 16 -10 35 -10 32 0 35 2 35 29 0 21 -6 32 -20 36 -11 3 -20 11 -20 16 0
5 -11 9 -24 9 -13 0 -29 7 -36 15 -7 8 -22 15 -34 15 -11 0 -30 7 -40 15 -11
8 -30 15 -42 15 -13 0 -26 5 -29 10 -3 6 -14 10 -23 10 -9 0 -30 7 -46 15 -15
8 -35 15 -43 15 -8 0 -32 10 -54 23 -43 24 -48 50 -10 55 13 2 31 10 38 18 8
8 32 14 52 14 22 0 44 6 51 15 7 8 28 15 47 15 19 0 41 7 49 15 9 8 28 15 44
15 15 0 41 7 56 15 16 8 44 15 62 15 17 0 32 4 32 9 0 5 20 12 45 15 24 4 47
11 50 17 4 5 17 9 31 9 26 0 64 32 64 53 0 8 -12 19 -27 26 -63 29 -89 40
-115 45 -16 4 -28 11 -28 16 0 6 -10 10 -23 10 -13 0 -32 7 -43 15 -10 8 -29
15 -42 15 -12 0 -25 7 -28 15 -4 8 -16 15 -29 15 -12 0 -36 7 -51 15 -16 8
-37 15 -46 15 -10 0 -18 4 -18 9 0 5 -18 11 -40 15 -22 3 -40 11 -40 16 0 6
-23 10 -51 10 -49 0 -50 -1 -47 -27z"/>
<path d="M5360 4998 c0 -150 4 -278 8 -283 11 -16 60 -45 76 -45 7 0 28 13 45
29 l31 29 0 271 0 271 -80 0 -80 0 0 -272z"/>
<path d="M7726 5255 c-11 -8 -39 -15 -62 -15 -23 0 -55 -7 -70 -15 -16 -8 -48
-15 -71 -15 -24 0 -43 -4 -43 -9 0 -5 -27 -12 -60 -16 -33 -4 -63 -11 -66 -16
-3 -5 -26 -9 -52 -9 -26 0 -56 -7 -66 -15 -11 -8 -28 -15 -38 -15 -13 0 -18
-8 -18 -30 l0 -30 60 0 c33 0 60 4 60 9 0 5 27 12 60 16 33 4 63 11 66 16 3 5
27 9 53 9 31 0 53 5 61 15 7 9 29 15 55 15 26 0 48 6 55 15 8 9 30 15 57 15
26 0 51 6 59 15 9 8 26 15 39 15 25 0 38 21 29 45 -8 20 -82 20 -108 0z"/>
<path d="M886 4880 c-4 -44 -12 -82 -17 -85 -5 -4 -9 -44 -9 -90 0 -66 3 -84
16 -89 9 -3 60 -6 114 -6 54 0 101 -4 104 -9 3 -5 89 -12 191 -16 105 -4 185
-12 185 -17 0 -5 10 -8 23 -6 15 2 23 11 25 28 2 14 7 34 12 45 4 11 11 75 14
143 5 121 5 122 -17 122 -41 0 -47 -17 -47 -137 l0 -113 -115 0 c-141 0 -139
-2 -133 148 5 114 -5 135 -42 91 -16 -20 -19 -40 -20 -116 0 -92 0 -93 -26
-99 -41 -10 -206 4 -216 19 -11 15 0 138 13 152 13 13 11 89 -3 103 -7 7 -20
12 -29 12 -13 0 -18 -15 -23 -80z"/>
<path d="M7845 4884 c-15 -11 -17 -18 -8 -32 16 -26 25 -114 14 -132 -8 -11
-37 -16 -123 -18 -62 -2 -117 -7 -123 -12 -5 -4 -86 -11 -178 -15 l-168 -7 3
-37 3 -36 74 -3 c42 -2 79 2 85 8 6 6 65 10 146 10 104 0 141 3 156 15 11 8
41 15 70 15 60 0 64 -5 64 -86 0 -57 21 -104 46 -104 11 0 14 29 14 153 0 88
-4 157 -10 163 -5 5 -13 38 -16 72 -7 64 -15 72 -49 46z"/>
<path d="M1302 4265 c-8 -10 -33 -15 -70 -15 -34 -1 -65 -7 -76 -15 -12 -9
-42 -15 -77 -15 -32 0 -59 -5 -61 -11 -2 -6 -33 -13 -68 -16 -71 -7 -90 -19
-90 -57 0 -33 39 -45 72 -22 15 11 44 16 89 16 47 0 70 4 79 15 30 36 70 10
70 -46 0 -21 5 -39 12 -41 8 -3 14 -33 16 -79 3 -41 11 -83 18 -94 8 -11 14
-44 14 -78 0 -46 -4 -59 -17 -64 -10 -4 -24 -13 -31 -20 -9 -8 -39 -13 -83
-13 -38 0 -69 -4 -69 -9 0 -5 -18 -12 -39 -16 -40 -7 -55 -23 -45 -50 5 -11
21 -15 61 -15 35 0 60 5 69 15 11 10 37 15 82 15 43 1 74 6 86 15 12 9 42 15
76 15 31 0 61 5 67 11 7 7 46 14 87 17 42 2 76 9 76 13 0 5 11 9 25 9 19 0 25
5 25 23 0 13 -5 28 -12 35 -16 16 -69 15 -92 -3 -12 -9 -42 -15 -77 -15 -32 0
-61 -4 -64 -10 -3 -5 -17 -10 -30 -10 -18 0 -26 7 -31 27 -4 15 -13 38 -20 52
-8 14 -14 51 -14 81 0 31 -5 61 -11 67 -6 6 -14 45 -18 88 -6 62 -4 80 7 92
23 23 59 33 117 33 30 0 56 4 59 9 4 5 25 12 49 16 44 8 57 18 57 48 0 15 -11
17 -102 17 -78 -1 -106 -4 -116 -15z"/>
<path d="M7864 4125 c-10 -8 -29 -15 -40 -15 -12 0 -24 -7 -28 -15 -3 -8 -17
-15 -31 -15 -14 0 -25 -4 -25 -10 0 -5 -12 -13 -26 -16 -14 -4 -45 -17 -68
-29 -78 -41 -99 -45 -196 -32 -49 6 -90 15 -90 19 0 14 -128 9 -133 -4 -8 -27
5 -48 32 -48 14 0 35 -7 45 -15 12 -9 43 -15 80 -15 83 0 143 -23 188 -70 21
-22 42 -40 48 -40 5 0 10 -7 10 -15 0 -8 7 -15 15 -15 8 0 15 -5 15 -10 0 -12
91 -100 103 -100 4 0 7 -7 7 -15 0 -8 6 -15 14 -15 8 0 16 -6 19 -12 6 -19 37
9 37 34 0 12 -43 62 -109 127 -109 106 -129 137 -101 151 8 4 29 15 47 24 17
9 40 16 51 16 11 0 22 7 26 15 3 8 15 15 26 15 12 0 28 7 36 15 9 8 24 15 35
15 10 0 19 4 19 9 0 5 11 12 25 15 20 5 25 13 25 36 0 34 -23 40 -56 15z"/>
<path d="M3555 3061 c-140 -18 -217 -31 -227 -38 -6 -3 -28 -10 -47 -14 -94
-19 -248 -90 -366 -167 -38 -26 -71 -50 -73 -54 -2 -4 -8 -8 -13 -8 -17 0
-179 -171 -179 -188 1 -10 26 -37 57 -62 30 -25 61 -50 67 -55 30 -29 178
-136 226 -166 30 -18 57 -35 60 -38 12 -14 278 -149 331 -169 19 -7 47 -19 62
-27 16 -8 35 -15 44 -15 8 0 27 -6 41 -14 42 -21 94 -38 132 -43 19 -3 40 -10
47 -15 6 -5 35 -13 65 -19 29 -6 87 -17 128 -25 255 -52 705 -52 960 0 41 8
99 20 129 25 30 6 59 15 65 21 5 5 19 10 31 10 24 0 109 27 147 46 14 8 33 14
41 14 9 0 28 7 44 15 15 8 43 20 62 27 53 20 319 155 331 169 3 3 30 20 60 38
47 29 205 144 220 160 3 3 27 24 55 46 27 22 74 65 104 95 l55 55 -59 3 c-32
2 -104 -2 -159 -8 -170 -20 -256 -23 -330 -11 -39 6 -126 15 -192 20 -67 5
-127 11 -132 15 -6 4 -39 11 -74 15 -35 5 -90 17 -123 26 -33 9 -78 20 -100
26 -22 5 -49 13 -60 18 -37 15 -90 33 -124 41 -18 5 -38 13 -44 19 -6 6 -19
11 -28 11 -9 0 -30 7 -45 15 -16 8 -37 15 -46 15 -9 0 -20 5 -23 10 -3 6 -14
10 -23 10 -9 0 -30 7 -46 15 -15 8 -33 15 -38 15 -6 0 -24 6 -41 13 -54 23
-101 39 -138 46 -19 4 -42 12 -49 16 -8 5 -32 12 -55 16 -22 5 -62 12 -90 18
-134 26 -215 33 -390 36 -104 2 -217 0 -250 -4z"/>
<path d="M1786 2651 c-3 -5 -21 -12 -40 -15 -22 -4 -37 -14 -41 -26 -4 -11
-11 -20 -16 -20 -5 0 -9 -27 -9 -60 0 -47 4 -64 20 -80 11 -11 23 -20 26 -20
3 0 12 -7 20 -15 9 -8 33 -15 54 -15 21 0 45 7 54 15 8 8 19 15 24 15 17 0 36
51 36 99 0 56 -26 99 -67 108 -15 3 -30 10 -33 14 -7 12 -21 11 -28 0z"/>
<path d="M6966 2651 c-3 -4 -18 -11 -33 -14 -41 -9 -67 -52 -67 -108 0 -48 19
-99 36 -99 5 0 16 -7 24 -15 9 -8 33 -15 54 -15 21 0 45 7 54 15 8 8 17 15 20
15 3 0 15 9 26 20 16 16 20 33 20 80 0 33 -4 60 -9 60 -5 0 -12 9 -16 20 -4
12 -19 22 -41 26 -19 3 -37 10 -40 15 -7 11 -21 12 -28 0z"/>
<path d="M3309 1760 c-13 -16 -33 -29 -43 -30 -11 0 -27 -7 -37 -16 -18 -16
-59 -12 -59 7 0 5 -16 9 -35 9 -27 0 -35 -4 -35 -18 0 -16 25 -32 79 -47 54
-16 79 -67 46 -95 -8 -7 -15 -22 -15 -34 0 -11 -7 -30 -15 -40 -8 -11 -15 -28
-15 -38 0 -10 -4 -26 -10 -36 -16 -30 -38 -86 -44 -114 -4 -16 -11 -28 -16
-28 -6 0 -10 -10 -10 -23 0 -12 -7 -33 -16 -45 -13 -20 -14 -24 0 -37 22 -22
43 -18 50 10 4 14 11 25 16 25 6 0 10 13 10 29 0 16 7 34 15 41 8 7 15 25 15
40 0 16 7 30 15 34 8 3 15 14 15 24 0 19 22 81 39 112 5 9 12 30 16 48 3 18
11 32 16 32 5 0 9 11 9 24 0 14 7 31 15 40 8 8 15 26 15 39 0 14 7 30 15 37
19 16 20 66 1 73 -7 3 -24 -8 -37 -23z"/>
<path d="M5409 1773 c-43 -22 -94 -71 -103 -101 -4 -12 -12 -22 -17 -22 -16 0
-10 -99 7 -125 18 -28 30 -31 49 -12 8 9 10 19 4 28 -14 23 -10 96 6 113 8 8
15 18 15 23 0 12 38 43 53 43 6 0 21 7 31 15 26 20 95 20 102 0 4 -8 10 -15
15 -15 14 0 49 -33 49 -46 0 -7 7 -14 15 -18 20 -7 21 -99 1 -115 -8 -7 -17
-23 -20 -36 -4 -14 -11 -25 -16 -25 -6 0 -10 -4 -10 -10 0 -5 -18 -28 -39 -49
-21 -21 -42 -48 -46 -60 -3 -12 -11 -21 -16 -21 -5 0 -9 -7 -9 -15 0 -9 -7
-18 -15 -21 -10 -4 -15 -20 -15 -44 0 -21 -7 -45 -15 -54 -8 -8 -15 -21 -15
-29 0 -8 7 -20 15 -27 8 -7 15 -28 15 -47 0 -33 1 -34 22 -19 12 9 32 16 44
16 12 0 27 7 34 15 7 8 22 15 34 15 11 0 30 7 40 15 11 8 30 15 43 15 13 0 23
5 23 10 0 6 8 10 18 10 9 0 30 7 46 15 15 8 36 15 46 15 10 0 23 7 30 15 7 8
19 15 26 15 12 0 12 4 2 21 -10 16 -20 19 -43 14 -16 -3 -31 -10 -33 -15 -2
-6 -16 -10 -32 -10 -15 0 -33 -7 -40 -15 -7 -8 -23 -15 -37 -15 -13 0 -31 -7
-39 -15 -9 -8 -26 -15 -38 -15 -13 0 -29 -7 -36 -15 -20 -24 -59 -19 -71 9
-10 21 -6 35 21 91 18 37 39 69 46 72 8 3 14 11 14 19 0 8 7 14 15 14 8 0 15
5 15 11 0 7 11 22 24 34 13 12 27 32 31 43 3 12 11 22 16 22 5 0 9 6 9 14 0 7
7 19 15 26 10 9 15 32 15 75 0 43 -5 66 -15 75 -8 7 -15 18 -15 24 -1 15 -36
56 -48 56 -6 0 -12 6 -14 12 -8 22 -166 22 -209 1z"/>
<path d="M3923 1613 c-18 -2 -33 -8 -33 -14 0 -5 -8 -9 -17 -9 -36 -1 -93 -76
-93 -122 0 -11 -7 -34 -15 -52 -14 -29 -14 -36 0 -62 8 -16 15 -39 15 -52 0
-26 59 -92 83 -92 9 0 19 -4 22 -10 3 -5 40 -10 81 -10 43 0 74 4 74 10 0 6
16 10 35 10 28 0 35 -4 35 -19 0 -11 -4 -23 -10 -26 -5 -3 -10 -17 -10 -30 0
-13 -7 -30 -15 -39 -8 -8 -15 -22 -15 -30 0 -9 -7 -16 -15 -16 -8 0 -15 -4
-15 -10 0 -5 -8 -19 -17 -30 -14 -16 -30 -20 -86 -20 -58 0 -73 4 -93 23 -13
12 -24 28 -24 35 0 6 -4 12 -9 12 -5 0 -11 10 -13 23 -2 14 -11 23 -26 25 -21
3 -22 1 -16 -39 14 -85 105 -130 232 -113 40 5 59 15 92 45 22 21 46 52 51 69
6 16 15 30 20 30 5 0 9 16 9 35 0 22 6 38 15 41 12 5 15 33 15 164 0 131 -3
159 -15 164 -8 3 -15 10 -15 16 0 16 -56 70 -72 70 -8 0 -18 4 -23 9 -12 12
-90 20 -132 14z m162 -97 c34 -32 35 -35 35 -115 0 -63 -3 -83 -15 -87 -8 -4
-15 -11 -15 -18 0 -16 -28 -38 -77 -60 -38 -17 -43 -17 -64 -2 -13 9 -36 16
-51 16 -18 0 -28 5 -28 15 0 8 -7 15 -15 15 -8 0 -15 9 -15 19 0 11 -4 23 -10
26 -5 3 -10 28 -10 56 0 27 5 49 10 49 6 0 10 12 10 28 0 17 12 40 29 60 29
31 33 32 106 32 73 0 77 -1 110 -34z"/>
<path d="M4740 1575 c0 -22 -6 -38 -15 -41 -8 -4 -15 -12 -15 -20 0 -8 -6 -14
-14 -14 -8 0 -16 -7 -20 -15 -3 -8 -16 -15 -30 -15 -14 0 -28 -4 -31 -10 -3
-5 -15 -10 -26 -10 -22 0 -24 -11 -7 -28 14 -14 88 -16 88 -3 0 5 10 11 22 14
16 5 31 -1 50 -20 27 -26 28 -30 28 -129 0 -72 4 -104 12 -106 8 -3 14 -39 16
-111 l4 -107 29 0 29 0 0 99 c0 71 -4 101 -12 103 -9 3 -14 37 -16 109 -2 57
-9 110 -14 117 -6 6 -13 58 -17 115 l-6 102 -27 3 c-26 3 -28 1 -28 -33z"/>
</g>
</svg>
